<?xml version="1.0" standalone="no"?>
<!DOCTYPE svg PUBLIC "-//W3C//DTD SVG 20010904//EN"
 "http://www.w3.org/TR/2001/REC-SVG-20010904/DTD/svg10.dtd">
<svg version="1.0" xmlns="http://www.w3.org/2000/svg"
 width="700.000000pt" height="700.000000pt" viewBox="0 0 700.000000 700.000000"
 preserveAspectRatio="xMidYMid meet">
<metadata>
Created by potrace 1.14, written by Peter Selinger 2001-2017
</metadata>
<g transform="translate(0.000000,700.000000) scale(0.100000,-0.100000)"
fill="#000000" stroke="none">
<path d="M3319 6598 c-6 -20 -10 -50 -12 -80 -1 -21 -6 -38 -11 -38 -4 0 -4
-6 1 -12 6 -7 9 -22 6 -33 -2 -11 -6 -44 -10 -74 -4 -43 -2 -52 8 -46 8 5 10
4 6 0 -4 -5 -73 -8 -153 -6 l-145 3 5 -26 c2 -14 10 -33 16 -43 11 -17 11 -17
6 0 -4 12 -2 17 6 15 6 -2 12 -12 14 -22 4 -28 11 -29 18 -1 4 14 11 25 17 25
6 0 8 4 5 8 -3 5 0 9 7 9 7 0 17 2 22 3 6 1 32 2 58 1 34 -1 47 -5 44 -13 -2
-7 2 -17 9 -23 18 -13 32 -81 16 -71 -7 4 -12 3 -12 -3 0 -16 -70 -8 -71 9 -4
56 -7 72 -17 82 -13 13 -42 3 -42 -14 0 -10 2 -10 9 1 15 24 32 1 29 -41 -2
-32 3 -44 22 -59 28 -21 40 -24 40 -9 0 5 6 7 14 4 11 -4 12 -12 4 -35 -7 -21
-7 -33 1 -42 16 -20 -7 -41 -27 -25 -10 9 -15 9 -21 0 -5 -9 -27 -10 -73 -3
-5 0 -8 8 -8 16 0 8 -4 15 -10 15 -5 0 -7 -6 -4 -14 7 -18 -15 -25 -44 -15
-18 7 -22 14 -18 31 4 16 2 14 -6 -4 -10 -22 -18 -28 -44 -28 -18 0 -40 7 -48
16 -14 14 -17 14 -22 0 -4 -12 -20 -14 -72 -11 -37 2 -71 4 -75 4 -5 1 -5 11
-2 22 5 15 4 19 -4 15 -6 -4 -11 -14 -11 -22 0 -14 -10 -17 -40 -15 -8 0 -22
-3 -30 -8 -12 -8 -12 -13 4 -30 10 -11 24 -18 30 -14 6 4 4 -2 -4 -12 -9 -11
-10 -16 -2 -11 6 4 12 3 12 -3 0 -5 -4 -12 -9 -16 -5 -3 7 -35 27 -71 39 -70
55 -71 27 -1 -10 25 -13 43 -6 45 5 2 1 12 -10 23 -29 29 -23 42 12 23 37 -19
69 -26 69 -15 0 4 -17 13 -38 19 -20 6 -46 18 -57 26 -19 14 -17 15 20 11 116
-13 124 -16 150 -50 14 -18 37 -35 50 -37 13 -3 22 -1 19 3 -3 5 -13 9 -23 9
-10 0 -26 11 -35 25 -19 29 -16 30 65 15 30 -6 68 -13 84 -16 17 -3 37 -7 45
-9 8 -1 14 -8 12 -16 -2 -10 0 -10 11 -1 11 10 17 9 27 -3 8 -10 17 -12 24 -6
20 16 38 -4 36 -40 -4 -67 -1 -79 20 -79 11 0 20 -6 20 -14 0 -8 3 -21 6 -30
4 -10 1 -16 -9 -16 -8 0 -17 5 -19 11 -2 7 -11 7 -28 0 -18 -7 -20 -10 -7 -10
17 -1 25 -21 8 -21 -5 0 -12 -7 -15 -16 -5 -14 -4 -15 9 -4 13 10 15 9 15 -10
0 -21 -1 -21 -23 -7 -15 10 -29 12 -38 6 -22 -14 -79 -11 -85 5 -3 8 -13 12
-24 9 -21 -6 -37 14 -22 29 30 30 -26 71 -68 48 -27 -14 -21 -21 19 -22 18 -1
34 -5 37 -10 3 -4 1 -8 -4 -8 -5 0 -7 -12 -4 -27 5 -25 3 -26 -11 -15 -9 8
-13 20 -10 29 4 11 2 14 -8 11 -8 -3 -13 -15 -11 -29 l3 -24 -116 3 c-106 3
-115 5 -115 23 0 10 -4 19 -10 19 -5 0 -10 -8 -10 -18 0 -15 -6 -17 -35 -14
-51 6 -105 -6 -105 -24 0 -8 8 -17 18 -21 9 -3 26 -13 36 -22 11 -9 16 -10 12
-3 -12 21 6 13 38 -15 l31 -28 -24 28 c-29 32 -15 36 44 11 20 -8 39 -13 42
-10 3 3 -6 8 -21 12 -46 11 -28 19 38 16 53 -3 66 -7 75 -25 6 -12 10 -14 7
-5 -6 21 15 29 54 21 24 -4 30 -11 30 -31 0 -24 -2 -24 -45 -19 -25 4 -57 9
-72 12 -16 3 3 -6 42 -20 38 -14 83 -39 100 -55 31 -30 57 -42 36 -17 -6 8 -7
18 -3 22 4 5 1 5 -5 1 -7 -4 -22 2 -35 13 -21 20 -21 21 -2 21 11 0 25 -5 32
-12 8 -8 12 -8 12 -1 0 10 35 10 102 0 26 -4 67 -41 68 -61 0 -4 -16 -6 -35
-4 -32 4 -35 2 -34 -22 0 -22 1 -23 8 -5 8 19 8 19 19 0 10 -18 11 -18 12 -2
0 10 8 17 20 17 23 0 25 17 5 44 -8 11 -15 25 -15 30 0 6 9 0 19 -13 14 -18
23 -22 42 -17 18 6 21 5 9 -3 -13 -10 -13 -11 0 -12 10 0 7 -4 -7 -11 -21 -10
-21 -11 23 -67 24 -31 44 -67 44 -79 l0 -24 -47 28 c-97 56 -173 109 -173 120
0 16 -38 24 -63 14 -21 -8 -21 -9 3 -9 27 -1 100 -45 100 -61 0 -6 8 -10 18
-11 26 -1 156 -92 160 -112 2 -10 -5 -25 -15 -33 -16 -13 -16 -13 0 -8 14 5
17 0 17 -30 0 -34 -8 -42 -35 -36 -5 1 -6 -2 -2 -7 5 -4 14 -8 20 -8 6 0 14
-17 18 -38 l6 -38 -224 2 c-168 1 -228 5 -237 15 -10 10 -16 10 -25 1 -12 -12
-79 -10 -96 3 -5 4 -18 0 -28 -10 -11 -11 -14 -20 -8 -24 5 -4 58 -11 117 -17
59 -5 113 -14 119 -19 7 -6 14 -7 17 -4 3 3 22 -2 42 -10 25 -10 41 -26 51
-49 8 -19 21 -37 30 -40 20 -8 19 3 -2 19 -16 12 -16 15 -3 25 13 9 12 10 -2
5 -12 -3 -18 0 -18 10 0 10 6 14 14 11 8 -3 34 -11 58 -17 24 -7 48 -15 53
-18 6 -4 37 -14 70 -22 60 -15 60 -15 58 -50 -2 -19 -3 -43 -3 -52 -1 -16 -17
-22 -57 -21 -7 1 -11 -3 -8 -7 3 -5 1 -12 -5 -15 -6 -4 -10 -3 -9 2 1 4 1 15
0 23 -1 13 -3 13 -10 1 -5 -8 -7 -19 -5 -26 3 -6 -7 -22 -22 -35 -16 -16 -24
-20 -22 -10 2 8 11 21 21 29 13 9 16 16 8 24 -6 6 -12 9 -14 6 -15 -23 -47
-89 -47 -97 0 -6 9 -19 20 -30 19 -18 17 -19 -83 -48 l-102 -31 -3 -54 c-6
-90 7 -161 29 -166 10 -3 19 -9 19 -14 0 -5 11 -7 24 -5 13 2 41 0 63 -6 21
-5 55 -10 75 -9 42 2 60 -14 20 -17 -15 -1 -71 -6 -126 -12 -54 -5 -107 -10
-117 -10 -10 0 -19 -4 -19 -9 0 -5 10 -7 21 -4 18 5 20 3 11 -13 -5 -10 -9
-34 -7 -51 1 -18 -2 -33 -7 -33 -4 0 -8 12 -8 28 -1 41 -22 83 -38 73 -7 -4
-14 -18 -15 -29 -1 -24 -4 -24 -127 -24 -121 0 -119 0 -126 28 -5 18 -9 22
-15 13 -4 -7 -6 -16 -3 -20 2 -4 0 -10 -6 -14 -13 -8 -22 18 -29 88 -1 4 -5 7
-11 7 -14 0 -29 -63 -18 -76 17 -22 -79 -33 -100 -12 -16 16 -15 100 1 117 10
11 10 13 0 7 -8 -4 -13 -2 -13 6 0 10 29 13 129 12 140 0 173 10 44 14 -43 2
-98 5 -122 7 -43 3 -65 20 -54 38 3 5 0 7 -8 5 -8 -3 -13 -13 -13 -22 1 -9 -2
-16 -7 -16 -9 0 -12 35 -9 135 2 68 4 73 24 56 11 -9 15 -9 19 1 3 8 8 4 14
-11 l10 -25 6 23 c5 19 12 22 49 21 24 -1 70 -1 103 0 102 3 32 19 -85 19 -68
1 -110 5 -118 13 -9 9 -12 9 -12 -2 0 -7 -2 -11 -5 -8 -8 8 16 58 28 58 6 0 7
3 4 7 -4 3 -2 12 4 19 7 8 7 14 -1 19 -5 3 -10 0 -10 -7 0 -8 -7 -23 -15 -34
-15 -18 -15 -18 -11 6 5 32 -15 52 -32 33 -10 -10 -10 -13 0 -13 9 0 13 -10
12 -27 -1 -16 -3 -36 -3 -45 -1 -11 -9 -18 -22 -18 -12 0 -28 8 -35 18 -13 16
-14 16 -7 -2 6 -17 3 -18 -43 -11 -27 4 -65 7 -84 5 -19 -1 -43 -3 -52 -3 -35
-2 -17 -17 20 -18 20 0 62 -3 92 -5 30 -3 72 -6 93 -6 36 0 37 -1 37 -39 0
-37 -13 -59 -23 -39 -3 6 -4 5 -2 -2 1 -7 7 -12 13 -11 11 3 9 -77 -2 -96 -5
-7 -60 -11 -163 -11 -86 0 -154 -2 -151 -5 5 -6 140 -17 191 -16 23 0 27 -2
18 -13 -9 -10 -7 -15 8 -19 14 -3 17 0 14 14 -5 17 1 19 42 19 41 0 47 -2 42
-19 -2 -10 0 -26 5 -35 8 -14 5 -15 -19 -6 -27 10 -28 10 -8 -7 27 -24 33 -89
8 -91 -72 -6 -149 0 -159 13 -9 12 -13 12 -26 -1 -10 -11 -41 -15 -109 -17
-89 -2 -94 -3 -97 -24 -2 -17 2 -23 15 -23 67 -1 352 -12 368 -15 17 -2 20
-10 20 -49 l-1 -46 38 0 c21 0 39 3 39 8 1 4 2 22 3 39 3 43 6 45 64 47 l50 1
0 -37 c1 -29 -3 -38 -16 -39 -9 -1 -24 -2 -32 -3 -8 -2 -25 -3 -38 -4 -13 -1
-20 -6 -17 -12 6 -10 -1 -12 -59 -14 -17 -1 -33 -9 -40 -21 -6 -11 -13 -22
-16 -25 -3 -3 -6 -16 -7 -30 -2 -21 -8 -62 -12 -80 -2 -9 -91 -33 -98 -26 -3
3 -12 1 -20 -5 -10 -9 -13 -7 -14 7 0 11 -3 14 -6 7 -6 -15 -53 -18 -53 -3 0
6 -9 10 -20 10 -13 0 -20 -7 -20 -20 0 -15 7 -20 30 -21 48 -2 51 -3 64 -21 8
-11 17 -14 27 -7 8 5 17 9 21 9 5 0 4 -92 -1 -132 -1 -5 -10 -8 -22 -8 -11 0
-18 4 -15 9 3 5 -4 11 -15 14 -17 5 -20 2 -16 -14 4 -14 -3 -23 -23 -34 -16
-8 -35 -13 -42 -10 -9 4 -14 -4 -14 -22 -2 -60 -5 -69 -28 -96 -13 -15 -23
-33 -22 -40 3 -16 47 -87 53 -87 4 0 40 22 82 48 102 66 213 130 245 142 25 9
26 9 26 -33 0 -27 -3 -37 -9 -28 -6 9 -10 10 -16 2 -4 -7 -1 -19 7 -28 11 -14
11 -16 -4 -10 -12 4 -18 0 -20 -15 -2 -12 -18 -30 -35 -39 -32 -18 -33 -18
-33 1 0 10 -4 21 -9 24 -11 7 -63 -19 -54 -27 3 -4 -3 -7 -15 -7 -13 0 -22 6
-22 15 0 13 -3 13 -20 3 -11 -7 -20 -17 -20 -23 0 -5 -14 -11 -31 -11 -17 -1
-35 -7 -40 -15 -5 -8 -9 -9 -9 -4 0 6 -5 2 -11 -7 -5 -10 -18 -18 -28 -18 -10
0 -31 -6 -46 -14 -31 -16 -241 -21 -279 -6 -20 8 -20 8 7 19 36 14 44 14 50
-1 3 -7 6 -3 6 10 1 15 -5 22 -18 22 -11 0 -27 3 -37 7 -11 4 -15 3 -10 -5 3
-6 -1 -15 -10 -20 -10 -6 -14 -19 -12 -38 2 -22 9 -30 28 -32 14 -2 30 -8 35
-14 7 -8 4 -9 -10 -4 l-20 6 20 -16 c19 -16 19 -16 -5 -9 -14 4 -30 12 -36 16
-8 7 -14 1 -19 -18 -4 -19 -2 -31 8 -38 18 -13 3 -50 -15 -39 -7 5 -9 -2 -6
-19 3 -15 2 -24 -2 -22 -4 3 -10 -5 -13 -16 -8 -29 -51 -22 -55 9 -2 12 -16
30 -30 39 -15 9 -37 25 -49 36 -22 19 -22 19 -20 -2 1 -11 8 -21 17 -22 11 0
12 -2 2 -6 -8 -3 -33 14 -58 38 -31 31 -44 38 -44 26 0 -46 -48 6 -56 61 -2 7
-9 24 -18 37 -9 13 -16 37 -16 53 0 34 -42 82 -71 82 -11 0 -27 -10 -37 -21
-35 -43 -58 -62 -97 -80 -22 -10 -60 -41 -84 -69 l-43 -51 -25 23 c-14 13 -34
37 -45 53 -14 22 -18 24 -13 8 3 -12 7 -30 10 -40 2 -10 10 -31 19 -48 18 -34
23 -71 6 -45 -6 8 -24 51 -41 95 -17 44 -48 116 -69 160 -21 44 -41 92 -45
108 -3 15 -12 27 -20 27 -8 0 -15 3 -15 8 0 4 -24 13 -53 20 -88 23 -105 20
-101 -15 2 -21 -9 -39 -59 -87 -71 -68 -65 -44 -70 -296 -2 -85 0 -163 5 -172
6 -12 5 -18 -2 -18 -8 0 -10 -36 -6 -122 4 -76 3 -117 -3 -108 -12 20 -71 197
-71 214 0 7 -7 21 -16 32 -8 10 -13 15 -11 9 3 -5 8 -53 11 -105 3 -52 8 -104
10 -115 2 -11 7 -45 10 -75 8 -70 16 -113 22 -119 2 -2 13 4 24 14 16 14 39
19 113 20 68 1 101 7 127 20 34 18 88 26 200 29 47 1 64 -5 120 -38 l65 -39
60 12 c33 6 91 15 129 20 l70 8 35 -34 c20 -19 30 -32 22 -28 -25 14 -83 17
-91 5 -17 -28 -142 -30 -248 -5 -57 14 -95 19 -99 13 -3 -6 -9 -5 -14 3 -7 11
-9 10 -9 -3 0 -10 -1 -18 -2 -18 -2 -1 -21 -3 -43 -7 -22 -3 -53 -14 -68 -25
-37 -26 -141 -32 -216 -12 -30 8 -57 11 -60 7 -3 -5 -17 -8 -31 -8 -21 0 -25
-5 -27 -33 -1 -18 5 -39 14 -47 17 -17 63 -20 63 -4 0 5 -5 7 -10 4 -6 -3 -10
-1 -10 4 0 6 6 11 13 12 6 0 1 5 -12 10 -31 12 -21 22 13 13 16 -4 23 -11 19
-18 -4 -6 0 -5 9 2 10 8 19 9 22 3 3 -5 1 -11 -5 -13 -5 -2 -7 -11 -4 -20 4
-11 24 -18 62 -23 39 -5 52 -10 42 -16 -8 -5 -9 -9 -4 -9 6 0 4 -4 -4 -9 -10
-7 3 -17 47 -37 39 -18 62 -35 62 -45 0 -14 -6 -16 -40 -8 -23 5 -48 13 -58
18 -127 61 -134 65 -117 71 18 6 17 7 -1 15 -25 10 -94 24 -94 18 0 -27 36
-152 47 -165 9 -10 17 -34 19 -54 2 -20 11 -46 21 -57 12 -14 13 -18 3 -12
-13 7 -13 6 -2 -7 8 -11 9 -18 3 -23 -10 -6 4 -51 49 -152 18 -42 19 -42 52
-30 18 6 35 12 36 14 10 5 -74 147 -95 160 -18 12 -21 19 -12 29 8 10 8 14 0
14 -6 0 -10 16 -8 38 2 35 4 37 30 34 15 -2 27 -8 27 -13 0 -5 3 -8 8 -7 13 5
91 -64 86 -76 -3 -7 5 -18 18 -24 13 -6 17 -11 11 -11 -9 -1 -10 -8 -3 -26 11
-29 4 -32 -23 -7 -11 9 -17 11 -13 5 4 -7 5 -13 2 -13 -2 0 -14 19 -25 42 -29
60 -60 98 -61 76 0 -9 8 -22 18 -27 9 -6 13 -11 8 -11 -5 0 -2 -8 5 -17 12
-15 12 -16 -4 -10 -17 6 -16 3 4 -31 12 -20 34 -52 48 -71 14 -19 29 -39 33
-45 4 -7 16 -2 32 13 14 14 32 21 40 18 9 -4 16 -2 16 3 0 6 10 10 23 11 21 0
21 1 2 8 -11 5 -22 5 -25 1 -3 -4 -15 5 -27 20 l-22 27 77 -14 c155 -29 396
-24 377 7 -2 4 -23 10 -45 14 -41 6 -55 25 -20 27 11 1 25 3 30 4 6 1 24 3 40
4 17 0 30 6 30 12 0 5 -4 8 -9 5 -5 -3 -22 1 -37 9 -16 8 -27 15 -24 16 21 4
92 7 183 9 59 1 110 6 113 11 3 5 10 7 15 4 5 -4 9 0 9 7 0 11 2 11 9 0 5 -8
19 -11 37 -8 16 2 29 5 29 6 0 1 10 3 23 6 13 2 21 0 18 -5 -9 -14 32 -2 96
27 67 30 82 52 38 52 -38 0 -27 -2 -117 26 -81 25 -115 29 -127 16 -4 -4 -35
-8 -69 -8 -34 -1 -84 -9 -112 -19 -95 -33 -268 -15 -307 32 -13 16 -10 16 107
-4 62 -10 167 -5 182 9 18 19 20 19 -157 22 -111 2 -167 8 -240 26 -115 28
-139 39 -90 41 44 2 37 2 90 -5 109 -15 184 -20 315 -20 111 1 146 4 170 17
25 13 27 16 10 18 -34 2 -80 6 -88 8 -19 3 6 21 29 21 13 0 24 5 24 11 0 6 -7
9 -15 5 -8 -3 -15 -1 -15 4 0 6 8 10 18 10 9 0 24 5 32 11 13 9 13 10 0 6 -8
-2 -20 2 -27 9 -7 6 -30 12 -52 12 -53 1 -67 10 -44 29 10 8 12 11 4 7 -9 -5
-12 -3 -7 4 4 7 19 12 34 12 21 0 24 -2 12 -10 -11 -7 -4 -9 25 -8 28 0 33 2
15 6 -23 4 -24 5 -5 13 17 6 17 8 3 8 -10 1 -18 6 -18 12 0 6 9 9 20 6 11 -3
18 -1 14 4 -8 13 8 11 28 -4 9 -7 19 -31 22 -52 4 -22 16 -59 27 -83 20 -41
22 -42 72 -42 54 0 88 -16 123 -56 11 -12 44 -29 74 -38 107 -31 113 -31 191
8 86 43 131 46 179 11 18 -13 37 -22 42 -19 12 7 97 -35 130 -64 60 -55 267
-56 325 -3 42 38 89 68 103 65 56 -12 152 -25 157 -21 10 11 109 -26 135 -50
23 -22 30 -24 43 -13 9 8 34 15 55 16 21 1 49 8 63 16 37 19 107 86 107 101 0
7 13 34 29 59 30 47 33 48 123 64 26 4 45 16 63 39 14 19 34 36 44 40 12 4 26
24 35 53 9 26 32 65 51 87 31 35 34 37 25 13 -9 -27 2 -49 15 -28 12 20 25 10
25 -20 0 -38 22 -40 52 -5 20 23 58 35 58 18 0 -4 -12 -18 -27 -31 l-28 -23
25 6 c14 4 41 15 62 25 20 10 39 16 42 13 3 -3 15 11 27 31 22 39 29 44 29 23
0 -7 -23 -39 -52 -71 -43 -49 -48 -57 -27 -51 93 28 123 60 121 127 -3 58 8
66 76 61 31 -3 81 -5 110 -5 37 0 52 -4 52 -13 0 -8 -9 -17 -20 -20 -37 -12
-22 -31 19 -25 13 2 13 0 0 -16 -13 -16 -11 -17 31 -10 24 4 70 17 102 30 32
13 58 21 58 18 0 -3 -10 -16 -22 -29 -21 -22 -21 -23 -2 -23 11 0 44 6 74 14
30 8 56 13 58 11 6 -5 -51 -45 -64 -45 -17 0 -18 -26 -1 -33 21 -8 119 22 202
63 155 75 212 146 230 285 2 11 13 78 25 149 12 71 19 137 17 147 -3 11 -2 17
3 14 7 -5 29 91 35 150 1 17 13 90 26 164 27 148 26 147 110 152 24 1 50 7 58
13 12 9 13 7 8 -6 -3 -10 -2 -18 3 -18 14 0 8 49 -7 62 -18 15 -16 35 5 47 9
6 13 10 7 11 -5 0 -17 -4 -25 -10 -8 -5 -17 -5 -20 -1 -3 5 -23 11 -45 15
l-40 7 47 -23 c27 -13 48 -26 48 -30 0 -6 -88 27 -97 36 -2 2 5 29 16 62 14
44 18 81 15 148 -3 80 -6 92 -29 116 -23 24 -25 32 -19 81 3 30 11 59 18 64 7
6 15 18 19 28 5 14 0 17 -26 18 -18 1 -45 2 -62 4 -16 1 -91 6 -165 10 -74 4
-137 9 -140 10 -3 2 -12 0 -20 -5 -9 -5 -20 -4 -29 3 -12 9 -13 9 -7 0 4 -7 2
-13 -3 -13 -6 0 -11 5 -11 10 0 15 -133 13 -149 -2 -10 -11 -12 -10 -9 2 2 8
-4 14 -12 15 -8 0 -30 6 -48 14 -25 10 -36 11 -45 2 -6 -6 -19 -11 -29 -11
-18 0 -20 7 -20 92 -1 24 -7 29 -49 43 -27 9 -54 13 -61 9 -7 -4 -9 -3 -5 1 4
5 -7 16 -25 25 -22 10 -35 25 -42 48 -6 21 -15 32 -27 32 -11 0 -19 7 -20 18
0 10 -3 12 -6 5 -7 -18 -41 -16 -60 2 -14 14 -17 14 -32 0 -18 -15 -70 -21
-72 -7 -8 61 -4 110 12 169 20 73 20 116 0 166 -6 15 -10 33 -8 40 1 7 -4 11
-12 9 -11 -2 -12 0 -4 10 8 9 7 16 -2 25 -8 7 -16 9 -20 4 -3 -5 -19 -7 -35
-5 -17 3 -30 1 -30 -5 0 -5 11 -8 24 -7 25 3 54 -9 45 -18 -3 -3 -19 -6 -37
-8 -25 -2 -31 -6 -27 -19 4 -12 -1 -18 -17 -21 -53 -9 -79 15 -34 32 13 5 27
15 31 22 6 10 5 11 -6 1 -7 -7 -21 -13 -31 -13 -10 0 -18 6 -18 13 0 8 -3 8
-8 2 -4 -6 -13 -10 -19 -9 -7 1 -20 2 -29 3 -8 0 -12 6 -9 11 3 6 34 11 68 11
34 1 49 4 32 6 -16 3 -33 10 -37 16 -6 9 -8 9 -8 0 0 -17 -47 -16 -53 1 -3 8
-16 12 -32 11 -20 -3 -25 0 -21 11 3 8 3 14 1 14 -10 0 -54 -48 -74 -80 -11
-19 -21 -30 -21 -25 0 6 9 25 21 44 24 39 21 106 -5 146 -15 22 -14 25 21 55
48 42 95 61 144 58 21 -1 44 3 50 9 9 9 7 11 -7 9 -13 -2 -21 5 -25 23 l-7 26
-1 -27 c-1 -23 -6 -28 -26 -28 -30 0 -31 7 -6 39 26 34 14 32 396 56 42 3 63
9 72 22 18 24 2 31 -78 37 -35 2 -66 5 -69 6 -3 1 -8 2 -12 1 -5 0 -8 4 -8 10
0 8 -4 8 -13 0 -10 -8 -17 -7 -25 1 -9 9 -12 9 -12 1 0 -8 -20 -11 -64 -8 -68
5 -128 13 -134 20 -10 9 10 23 26 18 9 -3 14 -3 10 1 -3 4 -22 11 -41 16 -31
6 -36 5 -45 -16 -11 -23 -33 -25 -114 -8 -30 6 -41 44 -13 44 8 0 15 8 14 18
0 9 -3 12 -6 5 -3 -8 -10 -9 -21 -3 -9 5 -24 11 -33 13 -15 5 -15 12 1 89 14
68 20 83 36 84 23 1 177 17 184 19 10 3 168 16 244 20 44 3 81 7 84 10 10 10
-7 17 -56 22 -70 6 -75 7 -91 17 -8 5 -16 4 -20 -3 -8 -13 -70 -6 -85 9 -5 5
-22 6 -37 3 -44 -9 -99 5 -100 25 0 13 -2 12 -9 -4 -5 -12 -14 -25 -21 -30 -8
-4 -10 -3 -5 4 4 7 0 13 -11 13 -27 3 -56 5 -71 7 -9 1 -11 9 -7 23 6 16 3 20
-11 17 -9 -1 -19 -9 -22 -17 -3 -8 0 -11 7 -7 6 4 9 2 5 -7 -3 -8 -17 -13 -37
-11 -18 1 -49 3 -69 3 -30 1 -36 5 -35 20 0 11 6 17 12 13 5 -3 4 1 -3 10 -11
14 -10 19 12 33 14 10 24 20 21 24 -5 9 38 8 45 0 3 -4 11 -1 18 7 7 8 9 14 5
14 -4 0 -8 14 -9 31 -1 17 2 26 5 21 3 -5 15 -6 26 -1 19 7 19 8 -3 8 -19 1
-23 6 -20 29 3 25 7 27 56 30 31 2 52 -1 52 -7 0 -6 -6 -11 -14 -11 -8 0 -18
-5 -22 -12 -5 -7 -2 -9 9 -5 11 4 14 2 10 -9 -3 -7 -15 -15 -27 -15 -12 -1 -6
-4 14 -8 24 -4 38 -2 43 7 5 7 6 16 3 19 -3 4 -6 1 -6 -5 0 -7 -4 -12 -9 -12
-14 0 0 41 15 47 30 11 14 33 -23 34 -21 0 -56 2 -78 4 -22 1 -52 3 -67 4 -15
0 -33 7 -41 15 -8 9 -24 12 -36 9 -25 -6 -27 0 -4 22 12 13 13 19 4 24 -7 5
-13 23 -15 40 -1 18 -9 37 -17 42 -11 6 -8 9 11 9 22 1 23 2 9 13 -11 8 -15
22 -11 45 3 24 1 32 -9 30 -10 -2 -13 5 -11 25 1 15 0 27 -3 27 -3 0 -5 -1 -6
-2z m31 -238 c0 -5 -5 -10 -11 -10 -5 0 -7 5 -4 10 3 6 8 10 11 10 2 0 4 -4 4
-10z m-80 -96 c0 -8 -4 -12 -10 -9 -5 3 -10 10 -10 16 0 5 5 9 10 9 6 0 10 -7
10 -16z m106 -1 c-3 -20 -27 -24 -33 -6 -2 6 4 13 14 16 10 3 19 5 20 6 1 0 0
-7 -1 -16z m74 -13 c0 -5 -6 -10 -14 -10 -8 0 -18 5 -21 10 -3 6 3 10 14 10
12 0 21 -4 21 -10z m30 0 c0 -5 -4 -10 -10 -10 -5 0 -10 5 -10 10 0 6 5 10 10
10 6 0 10 -4 10 -10z m-180 -10 c0 -5 -2 -10 -4 -10 -3 0 -8 5 -11 10 -3 6 -1
10 4 10 6 0 11 -4 11 -10z m173 -17 c-7 -2 -21 -2 -30 0 -10 3 -4 5 12 5 17 0
24 -2 18 -5z m-17 -22 c-4 -5 0 -12 6 -14 10 -4 9 -8 -2 -16 -12 -9 -13 -11
-1 -11 8 0 11 -3 8 -6 -4 -4 -13 -1 -22 6 -12 10 -15 10 -15 -1 0 -10 -4 -9
-16 3 -22 22 -11 48 21 48 15 0 24 -4 21 -9z m-162 -58 c-5 -5 -12 -12 -16
-18 -4 -6 -8 -2 -8 8 0 9 7 17 17 17 9 0 12 -3 7 -7z m26 -54 c0 -5 -4 -8 -9
-5 -15 10 -41 -5 -41 -23 0 -9 3 -12 8 -6 12 17 38 13 39 -6 1 -15 -5 -19 -28
-19 -29 0 -37 17 -24 52 6 16 55 23 55 7z m-163 -102 c12 -1 25 -7 28 -15 4
-11 -3 -13 -35 -8 -22 3 -59 9 -82 12 -73 10 -73 21 -1 16 37 -2 78 -4 90 -5z
m136 -5 c9 -1 17 -9 17 -17 0 -14 -4 -14 -34 -1 -24 10 -36 11 -39 3 -2 -6 -9
-7 -15 -3 -7 4 -10 11 -7 15 4 7 20 8 78 3z m141 -11 c3 -5 -1 -12 -10 -15
-24 -9 -31 -7 -31 9 0 16 32 21 41 6z m202 -8 c-9 -10 -66 -11 -60 -1 3 4 19
8 36 8 17 0 28 -3 24 -7z m-133 -10 c-7 -2 -19 -2 -25 0 -7 3 -2 5 12 5 14 0
19 -2 13 -5z m-774 -33 c11 -24 11 -24 -3 -6 -9 11 -16 24 -16 30 0 12 5 7 19
-24z m591 -2 c0 -12 -78 -10 -85 3 -5 6 9 9 39 8 25 -2 46 -6 46 -11z m95 2
c3 -5 1 -10 -4 -10 -6 0 -11 5 -11 10 0 6 2 10 4 10 3 0 8 -4 11 -10z m21 -25
c-9 -14 -21 -23 -26 -20 -15 10 -12 28 4 22 9 -4 16 3 20 16 3 12 8 18 12 14
4 -3 -1 -18 -10 -32z m74 8 c0 -10 -5 -35 -11 -55 -9 -35 -13 -38 -47 -40
l-37 -1 37 -4 c35 -4 37 -5 26 -29 -10 -22 -20 -28 -40 -25 -5 0 -8 -3 -8 -9
0 -5 9 -10 21 -10 11 0 17 -4 14 -10 -8 -14 -52 -13 -61 1 -3 6 0 15 7 20 11
7 10 9 -3 9 -21 0 -26 50 -5 51 10 0 10 2 0 6 -18 7 -16 43 1 43 8 0 23 10 33
23 18 23 51 46 66 47 4 0 7 -8 7 -17z m-212 -12 c10 -6 8 -9 -10 -13 -33 -6
-55 1 -37 13 18 11 30 11 47 0z m12 -56 c0 -9 -9 -15 -25 -15 -16 0 -25 6 -25
15 0 9 9 15 25 15 16 0 25 -6 25 -15z m3 -34 c4 -1 7 -8 7 -17 0 -8 -4 -12
-10 -9 -5 3 -10 1 -10 -4 0 -6 5 -11 10 -11 6 0 10 -4 10 -10 0 -5 -10 -8 -22
-6 -13 3 -25 5 -27 5 -3 1 0 6 7 13 17 17 15 31 -3 24 -8 -3 -15 -2 -15 3 0
13 11 19 28 16 9 -2 20 -4 25 -4z m-63 -71 c0 -5 -4 -10 -10 -10 -5 0 -10 5
-10 10 0 6 5 10 10 10 6 0 10 -4 10 -10z m61 -21 c6 -13 7 -19 1 -15 -6 3 -12
1 -14 -6 -3 -8 -7 -6 -11 5 -3 9 -2 17 4 17 6 0 7 5 4 10 -3 6 -4 10 -1 10 3
0 10 -10 17 -21z m217 -3 c5 -23 -14 -44 -28 -30 -12 12 -1 56 14 51 6 -2 13
-12 14 -21z m-265 -10 c7 -18 -1 -26 -18 -19 -8 2 -11 11 -8 19 7 18 19 18 26
0z m162 -16 c3 -5 2 -10 -4 -10 -5 0 -13 5 -16 10 -3 6 -2 10 4 10 5 0 13 -4
16 -10z m290 -10 c3 -5 -1 -10 -10 -10 -9 0 -13 5 -10 10 3 6 8 10 10 10 2 0
7 -4 10 -10z m-725 -66 c0 -31 -23 -28 -28 4 -2 15 2 22 12 22 11 0 16 -9 16
-26z m104 -22 c2 -4 -7 -7 -22 -6 -15 1 -37 2 -49 3 -22 1 -32 29 -17 44 7 7
79 -27 88 -41z m135 22 c12 -12 -8 -10 -34 2 l-30 14 30 -6 c16 -3 32 -8 34
-10z m-39 -20 c0 -2 -7 -4 -15 -4 -8 0 -15 4 -15 10 0 5 7 7 15 4 8 -4 15 -8
15 -10z m70 12 c0 -3 -4 -8 -10 -11 -5 -3 -10 -1 -10 4 0 6 5 11 10 11 6 0 10
-2 10 -4z m447 -15 c-1 -9 -12 -15 -22 -14 -11 1 -23 -3 -26 -9 -10 -15 -29 0
-29 23 0 17 6 19 40 17 31 -1 40 -6 37 -17z m93 -13 c0 -4 -19 -7 -42 -7 -39
1 -40 2 -13 8 41 9 55 9 55 -1z m-120 -37 c0 -4 -10 -20 -23 -34 -19 -23 -31
-27 -76 -27 -30 0 -51 3 -47 8 4 4 11 7 14 7 40 3 82 18 82 30 0 8 -6 16 -12
16 -7 1 1 5 17 8 31 8 45 5 45 -8z m-170 -7 c0 -8 -5 -12 -10 -9 -6 4 -8 11
-5 16 9 14 15 11 15 -7z m49 -5 c-16 -10 -23 -4 -14 10 3 6 11 8 17 5 6 -4 5
-9 -3 -15z m34 4 c-5 -12 -3 -14 7 -8 9 6 11 4 5 -4 -5 -9 -11 -9 -17 -3 -6 6
-7 15 -4 21 11 17 16 13 9 -6z m-113 -3 c0 -5 -2 -10 -4 -10 -3 0 -8 5 -11 10
-3 6 -1 10 4 10 6 0 11 -4 11 -10z m-192 -81 c3 -43 3 -44 -15 -24 -57 65 -58
66 -43 75 7 4 23 5 34 0 16 -5 22 -17 24 -51z m312 14 c0 -13 -71 -65 -89 -67
-12 -1 -17 9 -19 37 l-3 37 55 0 c31 0 56 -3 56 -7z m-127 -43 c-6 -22 -18
-26 -28 -10 -8 13 14 42 25 35 5 -3 6 -14 3 -25z m42 -60 c14 -13 23 -26 20
-28 -3 -3 -11 2 -18 11 -12 16 -39 22 -84 19 -12 -1 -38 -16 -58 -33 -19 -17
-35 -27 -35 -23 0 17 40 69 57 75 36 13 93 3 118 -21z m59 -176 c7 -18 0 -34
-15 -34 -5 0 -9 11 -9 25 0 28 15 34 24 9z m-247 -26 c-3 -8 -6 -5 -6 6 -1 11
2 17 5 13 3 -3 4 -12 1 -19z m391 -5 c2 -8 -6 -13 -22 -13 -26 0 -40 12 -29
24 11 11 46 2 51 -11z m152 3 c0 -3 -4 -8 -10 -11 -5 -3 -10 -1 -10 4 0 6 5
11 10 11 6 0 10 -2 10 -4z m-252 -33 c-10 -2 -26 -2 -35 0 -10 3 -2 5 17 5 19
0 27 -2 18 -5z m-167 -25 c4 -51 -2 -80 -26 -134 -14 -31 -25 -75 -25 -99 0
-38 -3 -43 -26 -48 -22 -4 -25 -1 -24 22 3 43 0 61 -9 61 -5 0 -8 -12 -6 -27
1 -15 -3 -36 -10 -46 -13 -18 -13 -18 -19 0 -7 21 6 97 28 161 4 12 11 20 16
17 4 -3 7 1 6 9 -1 13 73 104 87 105 4 1 8 -9 8 -21z m-450 -44 c6 -8 16 -14
21 -14 6 0 5 7 -2 16 -12 13 -10 15 11 12 13 -2 30 -7 37 -11 6 -5 12 -4 12 1
0 9 59 7 108 -4 26 -5 24 -30 -1 -28 -9 1 -14 -3 -11 -8 3 -5 12 -7 20 -4 8 3
14 2 14 -3 0 -8 44 -31 58 -31 4 0 -2 7 -12 15 -19 15 -19 15 5 16 21 1 19 2
-8 10 -34 10 -43 24 -20 32 25 8 46 -6 52 -35 8 -33 -8 -52 -35 -42 -8 3 -19
7 -25 8 -5 2 -17 5 -25 8 -59 21 -158 47 -170 46 -18 -2 -80 24 -80 33 0 11
38 -2 51 -17z m817 -139 c9 -9 -255 -3 -269 6 -6 4 50 5 126 4 75 -2 140 -7
143 -10z m-298 -13 c0 -19 -43 -46 -54 -35 -7 7 33 53 46 53 4 0 8 -8 8 -18z
m174 -122 c-3 -2 -62 -6 -131 -7 -69 -1 -128 -4 -130 -6 -3 -4 -10 -67 -12
-119 -1 -10 -6 -18 -12 -18 -7 0 -10 21 -7 60 1 33 1 60 -1 60 -1 0 -44 -14
-93 -30 -50 -17 -93 -29 -95 -27 -5 6 225 85 257 89 40 5 229 4 224 -2z m-495
-93 c-11 -8 -121 -38 -125 -34 -6 6 119 45 125 40 2 -2 2 -4 0 -6z m1056 -37
c3 -6 -1 -7 -9 -4 -18 7 -21 14 -7 14 6 0 13 -4 16 -10z m-1242 -17 l-52 -16
-4 -56 -3 -56 0 60 1 59 40 12 c22 7 47 12 55 12 8 0 -8 -7 -37 -15z m264 -29
c-3 -3 -12 -4 -19 -1 -8 3 -5 6 6 6 11 1 17 -2 13 -5z m71 -1 c-10 -2 -28 -2
-40 0 -13 2 -5 4 17 4 22 1 32 -1 23 -4z m222 -3 c0 -3 -45 -6 -100 -5 -55 0
-100 3 -100 7 0 4 45 7 100 6 55 -1 100 -4 100 -8z m206 -2 c2 -3 -40 -5 -96
-4 -55 0 -100 4 -100 8 0 7 188 4 196 -4z m114 -5 c2 -2 -19 -3 -48 -2 -28 2
-52 6 -52 10 0 7 91 0 100 -8z m-660 2 c0 -2 -13 -11 -30 -20 -38 -19 -40 -11
-2 9 31 17 32 18 32 11z m713 -2 c-7 -2 -21 -2 -30 0 -10 3 -4 5 12 5 17 0 24
-2 18 -5z m392 -82 c3 -6 -9 -14 -27 -20 -18 -5 -94 -32 -168 -60 -74 -28
-139 -50 -144 -48 -6 2 10 11 34 21 25 10 97 40 160 66 125 52 136 55 145 41z
m-371 -12 c3 -3 -5 -6 -17 -6 -31 -2 -55 -8 -63 -16 -11 -11 -26 -8 -19 3 11
18 86 32 99 19z m579 4 c-7 -2 -19 -2 -25 0 -7 3 -2 5 12 5 14 0 19 -2 13 -5z
m-490 -41 c19 -17 22 -32 7 -32 -5 0 -9 4 -7 9 1 4 -9 18 -23 30 -14 13 -18
19 -10 15 8 -4 23 -14 33 -22z m-217 -24 c-9 -12 -16 -19 -16 -15 0 11 24 47
28 42 2 -2 -3 -14 -12 -27z m1181 16 c-3 -3 -12 -4 -19 -1 -8 3 -5 6 6 6 11 1
17 -2 13 -5z m-110 -24 c16 -10 16 -10 -3 -5 -19 5 -146 -36 -169 -55 -5 -4
-28 -11 -50 -15 -22 -4 -62 -18 -90 -31 -95 -44 -135 -49 -204 -24 -34 13 -61
29 -61 36 0 18 -19 18 -26 0 -6 -15 -39 -11 -61 7 -18 14 -16 37 5 44 9 3 25
15 34 27 22 27 76 32 375 29 151 -1 239 -6 250 -13z m113 -14 c0 -21 -10 -28
-86 -55 -47 -17 -89 -31 -95 -31 -5 0 -9 -5 -9 -11 0 -5 -4 -8 -8 -5 -5 3 -25
0 -46 -6 -22 -7 -32 -14 -25 -19 7 -4 -4 -7 -24 -6 -35 1 -57 21 -40 38 4 4
67 28 138 54 72 25 139 50 150 55 33 15 45 11 45 -14z m-1360 10 c0 -3 -4 -8
-10 -11 -5 -3 -10 -1 -10 4 0 6 5 11 10 11 6 0 10 -2 10 -4z m-47 -13 c-7 -2
-19 -2 -25 0 -7 3 -2 5 12 5 14 0 19 -2 13 -5z m1267 -2 c-8 -5 -26 -11 -40
-15 -21 -5 -20 -3 5 9 32 15 60 20 35 6z m-1390 -25 c0 -2 -7 -7 -16 -10 -8
-3 -12 -2 -9 4 6 10 25 14 25 6z m317 -18 c-3 -8 -6 -5 -6 6 -1 11 2 17 5 13
3 -3 4 -12 1 -19z m-1420 -10 c-3 -8 -6 -5 -6 6 -1 11 2 17 5 13 3 -3 4 -12 1
-19z m1033 8 c0 -2 -7 -6 -15 -10 -8 -3 -15 -1 -15 4 0 6 7 10 15 10 8 0 15
-2 15 -4z m-125 -15 c-6 -5 -64 -12 -130 -16 -66 -4 -123 -9 -127 -11 -4 -3
-9 0 -13 6 -4 6 10 10 37 10 71 1 223 12 227 16 2 2 7 4 10 4 3 0 1 -4 -4 -9z
m78 -6 c-3 -9 -8 -14 -10 -11 -3 3 -2 9 2 15 9 16 15 13 8 -4z m1637 -2 c-1
-18 -18 -34 -46 -42 -16 -5 -103 -35 -193 -65 -90 -31 -172 -56 -183 -56 -24
0 -23 27 2 35 11 4 18 10 16 14 -7 11 68 9 76 -3 4 -6 8 1 8 15 0 25 25 47 38
34 3 -3 -1 -5 -8 -5 -7 0 -11 -2 -8 -5 9 -9 68 17 62 27 -4 6 2 8 16 3 15 -5
20 -4 16 4 -4 6 -1 9 7 5 8 -3 45 6 83 20 70 25 114 32 114 19z m-2000 -7 c0
-3 -4 -8 -10 -11 -5 -3 -10 -1 -10 4 0 6 5 11 10 11 6 0 10 -2 10 -4z m-616
-48 c-9 -14 -23 2 -17 18 4 12 8 13 14 3 4 -7 5 -17 3 -21z m2269 2 c4 -16 -4
-22 -44 -35 -27 -9 -53 -14 -59 -10 -22 13 -8 34 33 48 57 21 64 20 70 -3z
m-253 -4 c0 -3 -4 -8 -10 -11 -5 -3 -10 -1 -10 4 0 6 5 11 10 11 6 0 10 -2 10
-4z m648 -8 c12 -12 17 -100 6 -111 -3 -3 -12 -3 -18 -1 -10 4 -11 14 -3 43 6
21 7 46 4 55 -9 23 -27 19 -255 -57 -167 -56 -181 -63 -176 -82 4 -11 12 -23
18 -27 8 -5 7 -11 -3 -20 -8 -7 -11 -8 -8 -2 6 11 -27 54 -42 54 -5 0 -57 -18
-117 -41 -60 -22 -147 -54 -194 -69 -47 -16 -134 -47 -195 -68 -60 -22 -117
-42 -125 -45 -8 -3 -73 -26 -144 -51 -71 -26 -131 -45 -132 -43 -6 6 523 199
926 338 47 16 94 33 105 38 27 12 202 71 243 81 19 5 36 11 39 14 11 11 59 6
71 -6z m-613 -17 c-6 -5 -21 -11 -35 -15 -21 -5 -20 -3 5 9 35 17 42 18 30 6z
m88 -11 c3 -12 0 -20 -8 -20 -7 0 -16 -7 -19 -16 -4 -10 -13 -13 -27 -9 -16 6
-20 4 -13 -6 6 -12 5 -12 -8 -1 -25 20 -15 44 23 58 46 17 46 17 52 -6z m127
0 c-8 -5 -19 -10 -25 -10 -5 0 -3 5 5 10 8 5 20 10 25 10 6 0 3 -5 -5 -10z
m-315 -29 c-43 -19 -104 -36 -94 -27 7 8 111 45 124 45 6 0 -8 -8 -30 -18z
m-1945 -35 c0 -14 -4 -28 -10 -31 -6 -4 -10 7 -10 24 0 17 5 31 10 31 6 0 10
-11 10 -24z m184 -14 c-1 -15 -2 -37 -3 -49 -2 -41 -19 -24 -23 22 -4 54 -1
65 16 59 7 -3 12 -17 10 -32z m284 20 c11 -28 25 -34 98 -39 92 -6 104 -15
104 -84 0 -44 2 -48 28 -51 23 -3 21 -5 -18 -14 -50 -11 -83 -7 -73 9 4 6 1 7
-8 1 -17 -11 -89 -13 -83 -2 3 4 1 8 -5 8 -5 0 -11 -6 -14 -12 -2 -7 -7 4 -11
25 -4 20 -16 43 -26 50 -11 6 -20 19 -21 27 0 9 -4 6 -9 -7 -5 -13 -16 -20
-27 -18 -10 2 -23 4 -30 4 -7 1 -17 19 -23 41 -12 46 -41 68 -60 45 -7 -8 -9
-15 -6 -15 4 0 0 -7 -8 -16 -9 -8 -16 -21 -16 -27 0 -7 -9 -18 -21 -25 -12 -8
-18 -9 -14 -3 3 6 0 11 -8 11 -20 0 -25 17 -19 67 l4 42 131 -6 c73 -2 133 -8
135 -11z m1682 -24 c0 -17 -5 -20 -29 -16 -18 3 -28 0 -24 -6 4 -5 0 -7 -10
-3 -9 3 -17 2 -19 -3 -3 -8 -37 -13 -73 -11 -22 2 43 37 105 57 41 13 50 10
50 -18z m-336 9 c-17 -7 -29 -17 -27 -22 2 -6 -11 -12 -29 -13 -32 -3 -33 -2
-11 13 27 19 63 34 83 34 8 0 1 -6 -16 -12z m236 9 c0 -2 -7 -7 -16 -10 -8 -3
-12 -2 -9 4 6 10 25 14 25 6z m-1730 -37 c0 -6 -4 -7 -10 -4 -5 3 -10 11 -10
16 0 6 5 7 10 4 6 -3 10 -11 10 -16z m1163 12 c78 -1 137 -5 137 -10 0 -6
-106 -10 -262 -11 -144 0 -271 -3 -283 -6 -13 -3 -21 -14 -23 -29 -1 -14 -8
-39 -15 -57 -13 -32 -13 -30 -9 32 2 36 6 67 8 69 7 8 138 16 224 14 47 -1
147 -2 223 -2z m167 -11 c0 -5 -2 -10 -4 -10 -3 0 -8 5 -11 10 -3 6 -1 10 4
10 6 0 11 -4 11 -10z m221 1 c-8 -5 -26 -7 -40 -4 -42 7 -37 13 10 13 30 0 39
-3 30 -9z m771 -24 c2 -12 -1 -56 -8 -97 -7 -41 -16 -91 -19 -110 -6 -39 -13
-75 -19 -105 -2 -12 -8 -48 -12 -80 -4 -33 -9 -63 -10 -67 -1 -5 -2 -19 -3
-33 0 -14 -6 -25 -12 -25 -5 0 -8 3 -6 8 3 4 8 36 11 72 4 36 11 94 16 130 11
80 19 139 27 210 3 30 7 62 9 70 1 8 3 23 3 33 1 25 18 21 23 -6z m-925 7 c-3
-3 -12 -4 -19 -1 -8 3 -5 6 6 6 11 1 17 -2 13 -5z m-978 -20 c2 -2 0 -18 -5
-35 -6 -22 -16 -33 -32 -35 -20 -4 -22 0 -22 42 0 45 0 46 27 39 16 -4 30 -8
32 -11z m251 5 c-8 -5 -35 -20 -60 -33 -25 -13 -57 -35 -72 -49 -16 -15 -28
-22 -28 -18 0 12 46 47 105 81 48 27 86 40 55 19z m690 7 c0 -6 -93 -37 -97
-32 -2 2 15 11 39 19 47 17 58 19 58 13z m-1580 -16 c0 -13 -11 -13 -30 0 -12
8 -11 10 8 10 12 0 22 -4 22 -10z m57 -26 c-3 -3 -12 -4 -19 -1 -8 3 -5 6 6 6
11 1 17 -2 13 -5z m-66 -21 c13 -16 12 -17 -3 -4 -10 7 -18 15 -18 17 0 8 8 3
21 -13z m2086 -5 c-3 -8 -6 -5 -6 6 -1 11 2 17 5 13 3 -3 4 -12 1 -19z m267 6
c21 -21 20 -58 -1 -75 -16 -13 -17 -12 -5 3 23 29 11 63 -22 66 -22 3 -26 6
-15 13 19 12 25 11 43 -7z m-329 -34 c-27 -11 -54 -20 -60 -19 -18 1 69 38 90
38 11 0 -2 -9 -30 -19z m-1668 -27 c-9 -9 -107 -13 -107 -4 0 3 26 7 57 9 31
1 54 -1 50 -5z m-376 -100 c-2 -18 -7 -33 -12 -33 -11 0 -12 74 -2 110 7 24 8
23 13 -10 3 -19 3 -50 1 -67z m1194 67 c-3 -5 -12 -10 -18 -10 -7 0 -6 4 3 10
19 12 23 12 15 0z m-746 -82 c7 -19 5 -25 -18 -35 -34 -14 -39 -10 -33 27 5
37 38 42 51 8z m51 -14 c0 -8 -6 -11 -15 -8 -8 4 -15 9 -15 13 0 4 7 8 15 8 8
0 15 -6 15 -13z m-525 -24 c3 -5 -1 -10 -9 -10 -9 0 -16 5 -16 10 0 6 4 10 9
10 6 0 13 -4 16 -10z m15 -30 c0 -5 -4 -10 -10 -10 -5 0 -10 5 -10 10 0 6 5
10 10 10 6 0 10 -4 10 -10z m565 1 c3 -5 1 -12 -5 -16 -5 -3 -10 0 -11 7 0 9
-2 8 -6 -2 -3 -8 -13 -24 -23 -35 -10 -11 -21 -31 -25 -45 -8 -25 -8 -25 14
-6 11 11 23 17 26 14 3 -3 -20 -21 -50 -42 -30 -20 -55 -35 -56 -34 0 2 -3 24
-5 49 -5 42 -2 49 23 68 15 13 36 20 46 17 10 -2 16 -2 13 1 -7 7 24 32 41 33
6 0 14 -4 18 -9z m1623 -21 c40 -20 72 -51 90 -87 15 -26 15 -43 2 -43 -5 0
-6 7 -3 17 4 11 3 14 -5 9 -7 -4 -12 -2 -12 3 0 6 -1 14 -2 19 -2 9 -99 72
-113 73 -5 0 -18 2 -28 4 -11 2 -16 1 -13 -3 4 -3 13 -7 21 -8 44 -6 130 -106
123 -141 -3 -14 -8 -11 -26 17 -12 19 -22 31 -22 26 0 -5 -9 -1 -20 9 -13 11
-41 20 -75 23 -56 5 -71 16 -35 27 11 3 20 15 20 25 0 54 34 64 98 30z m-2219
6 c-10 -9 -79 -14 -74 -5 4 5 22 9 42 9 20 0 34 -2 32 -4z m1221 -5 c-8 -5
-26 -11 -40 -15 -21 -5 -20 -3 5 9 32 15 60 20 35 6z m750 -36 c0 -2 -11 0
-25 5 -14 5 -27 6 -30 0 -4 -7 -41 -7 -65 0 -3 1 11 7 30 14 29 11 40 11 63
-1 15 -7 27 -16 27 -18z m-860 -5 c-8 -5 -19 -10 -25 -10 -5 0 -3 5 5 10 8 5
20 10 25 10 6 0 3 -5 -5 -10z m-1154 -28 c-2 -15 -10 -26 -20 -28 -12 -2 -16
2 -12 13 3 8 6 20 6 27 0 7 6 13 14 13 9 0 13 -9 12 -25z m1936 4 c16 -8 37
-13 48 -10 64 14 62 14 50 -1 -7 -8 -17 -13 -23 -12 -6 1 -11 -3 -12 -10 0 -6
-4 -15 -8 -20 -5 -4 -7 -1 -5 7 2 9 -6 16 -19 18 -13 2 -23 8 -23 14 0 6 -11
8 -28 5 -19 -4 -35 1 -52 15 l-25 20 34 -6 c19 -3 47 -13 63 -20z m-882 -16
c-8 -5 -19 -10 -25 -10 -5 0 -3 5 5 10 8 5 20 10 25 10 6 0 3 -5 -5 -10z
m-1240 -4 c0 -9 -30 -14 -35 -6 -4 6 3 10 14 10 12 0 21 -2 21 -4z m1190 -16
c-8 -5 -19 -10 -25 -10 -5 0 -3 5 5 10 8 5 20 10 25 10 6 0 3 -5 -5 -10z
m1560 6 c0 -3 -4 -8 -10 -11 -5 -3 -10 -1 -10 4 0 6 5 11 10 11 6 0 10 -2 10
-4z m-684 -18 c4 -7 4 -10 -1 -6 -4 4 -16 3 -26 -3 -11 -5 -19 -6 -19 -1 0 23
34 30 46 10z m91 -20 c-3 -7 -5 -2 -5 12 0 14 2 19 5 13 2 -7 2 -19 0 -25z
m133 23 c0 -5 3 -18 6 -28 5 -16 4 -16 -10 1 -18 23 -20 36 -6 36 6 0 10 -4
10 -9z m-2227 -8 c-7 -2 -21 -2 -30 0 -10 3 -4 5 12 5 17 0 24 -2 18 -5z
m1077 -3 c-8 -5 -19 -10 -25 -10 -5 0 -3 5 5 10 8 5 20 10 25 10 6 0 3 -5 -5
-10z m-80 -30 c-8 -5 -19 -10 -25 -10 -5 0 -3 5 5 10 8 5 20 10 25 10 6 0 3
-5 -5 -10z m-2475 -19 c-3 -6 -11 -8 -17 -5 -6 4 -5 9 3 15 16 10 23 4 14 -10z
m2125 -1 c0 -5 -5 -10 -11 -10 -5 0 -7 5 -4 10 3 6 8 10 11 10 2 0 4 -4 4 -10z
m2047 -85 c-6 -30 -12 -53 -14 -51 -7 6 9 106 17 106 3 0 2 -25 -3 -55z
m-1870 34 c-32 -18 -127 -59 -127 -54 0 6 121 63 135 64 6 0 2 -4 -8 -10z
m-1031 -14 c-11 -8 -25 -15 -30 -15 -6 0 -2 7 8 15 11 8 25 15 30 15 6 0 2 -7
-8 -15z m2431 -41 c-2 -13 0 -24 5 -24 11 0 3 -63 -13 -101 -14 -36 -65 -59
-102 -46 -21 7 -27 14 -24 28 3 12 1 17 -6 12 -6 -3 -3 4 6 17 12 18 27 25 58
26 22 1 43 4 45 7 3 3 8 30 11 61 3 31 10 53 15 50 6 -4 8 -17 5 -30z m-2192
-33 c3 -5 1 -12 -5 -16 -5 -3 -10 1 -10 9 0 18 6 21 15 7z m103 -56 c-8 -8
-26 11 -33 35 -7 25 -7 25 15 -3 12 -15 21 -30 18 -32z m482 51 c0 -2 -7 -7
-16 -10 -8 -3 -12 -2 -9 4 6 10 25 14 25 6z m-633 -32 c-9 -9 -28 6 -21 18 4
6 10 6 17 -1 6 -6 8 -13 4 -17z m178 -3 c3 -5 2 -12 -3 -15 -5 -3 -9 1 -9 9 0
17 3 19 12 6z m304 -35 c-2 -2 -15 -9 -29 -15 -24 -11 -24 -11 -6 3 16 13 49
24 35 12z m-915 -65 c3 -5 -2 -15 -12 -22 -15 -13 -16 -12 -4 3 11 14 10 17
-5 21 -16 4 -16 5 -1 6 9 0 19 -3 22 -8z m726 -27 c0 -6 -107 -54 -118 -53 -4
0 20 13 53 29 71 33 65 31 65 24z m-1491 -38 c13 -6 29 -20 35 -31 6 -11 14
-22 17 -25 3 -3 11 -20 17 -38 6 -18 20 -45 32 -59 11 -14 20 -30 20 -36 0 -6
7 -18 16 -28 10 -11 12 -19 5 -24 -6 -3 -11 -1 -11 5 0 6 -4 9 -9 6 -13 -9
-35 22 -81 114 -39 79 -71 130 -55 88 11 -27 -11 -22 -34 8 -37 46 -21 53 48
20z m1021 -6 c0 -11 -4 -20 -10 -20 -5 0 -10 6 -10 13 0 8 -4 7 -10 -3 -14
-22 -13 -100 3 -100 7 -1 5 -6 -5 -14 -10 -7 -15 -16 -11 -20 4 -4 -1 -4 -11
0 -13 5 -17 4 -13 -3 4 -6 -2 -13 -13 -16 -22 -6 -37 8 -20 18 8 5 7 12 -2 23
-10 12 -10 16 0 19 6 3 12 14 12 26 0 17 2 19 9 7 6 -8 7 -18 5 -22 -3 -4 2
-8 11 -8 12 0 15 5 11 16 -3 9 -6 19 -6 24 0 5 -11 7 -25 4 -18 -3 -25 0 -25
11 0 8 5 15 11 15 5 0 27 11 47 25 44 30 52 31 52 5z m-152 -25 c-1 -13 -4
-22 -7 -20 -2 3 -10 0 -18 -7 -10 -8 -17 -8 -25 0 -8 8 -4 14 15 21 15 6 27
13 27 17 0 3 -7 4 -15 0 -8 -3 -15 -1 -15 4 0 6 9 10 20 10 15 0 19 -6 18 -25z
m492 11 c0 -2 -7 -7 -16 -10 -8 -3 -12 -2 -9 4 6 10 25 14 25 6z m-50 -20 c0
-2 -7 -7 -16 -10 -8 -3 -12 -2 -9 4 6 10 25 14 25 6z m-892 -25 c21 -11 39
-48 28 -58 -3 -3 -25 6 -49 20 -25 15 -64 30 -88 34 -38 6 -40 8 -19 13 36 9
103 4 128 -9z m220 -58 c-15 -2 -42 -2 -60 0 -18 2 -6 4 27 4 33 0 48 -2 33
-4z m-828 -63 c0 -5 -4 -10 -10 -10 -5 0 -10 5 -10 10 0 6 5 10 10 10 6 0 10
-4 10 -10z m727 -16 c-6 -6 -47 9 -47 17 0 5 11 3 25 -3 14 -6 24 -13 22 -14z
m399 -29 c3 -14 12 -25 18 -25 8 0 13 -15 14 -35 1 -20 4 -40 7 -45 4 -6 1
-10 -4 -10 -6 0 -11 4 -11 8 0 4 -9 8 -20 9 -11 1 -20 -3 -20 -8 0 -6 5 -7 10
-4 6 3 10 1 10 -4 0 -6 8 -11 18 -12 9 0 -1 -7 -23 -15 -22 -8 -45 -12 -52
-10 -7 3 -13 1 -13 -5 0 -14 -53 1 -68 20 -12 15 -15 14 -28 -4 -15 -19 -16
-19 -29 -2 -12 16 -14 16 -29 2 -9 -9 -20 -14 -25 -11 -5 3 -11 -3 -14 -14 -4
-17 -2 -19 21 -13 15 3 33 6 42 6 8 0 20 3 25 8 11 8 41 7 50 -3 5 -5 -25 -12
-150 -34 -11 -2 -46 -9 -79 -15 -32 -5 -59 -9 -61 -7 -1 2 -6 14 -9 28 -6 19
-5 21 3 10 8 -12 11 -7 11 22 0 40 -3 38 103 64 20 4 26 11 22 22 -4 12 -3 13
9 3 8 -7 17 -22 19 -34 2 -12 3 -7 1 10 -2 23 2 36 14 41 47 24 204 72 214 66
7 -4 8 -3 4 4 -4 7 -3 12 3 12 6 0 13 -11 17 -25z m-348 -253 c6 -1 12 -7 12
-13 0 -5 -3 -8 -7 -6 -11 7 -33 -19 -25 -28 4 -4 -3 -2 -15 4 -13 6 -23 9 -23
5 0 -4 -9 1 -20 11 -17 15 -23 16 -33 5 -9 -10 -9 -11 1 -6 6 4 12 2 12 -3 0
-6 -7 -11 -15 -11 -17 0 -21 36 -4 42 11 4 90 3 117 0z m-53 -76 c-2 -14 -7
-31 -11 -38 -5 -7 -9 -20 -9 -28 -1 -8 -6 -32 -13 -53 -6 -21 -8 -46 -5 -54
11 -27 -20 -9 -39 23 -23 40 -28 85 -16 134 10 39 12 40 53 40 39 0 42 -2 40
-24z m1781 -39 c10 3 12 0 8 -10 -3 -10 2 -18 18 -23 l23 -8 -25 -6 c-18 -4
-24 -12 -22 -26 3 -18 3 -18 -14 -2 -16 16 -18 16 -31 0 -13 -15 -13 -15 -8 6
4 12 3 22 -2 21 -4 -1 -21 0 -38 1 -30 2 -30 2 7 12 27 7 35 14 31 25 -4 11
-2 14 5 9 7 -4 15 0 19 11 7 16 8 16 11 1 2 -10 9 -15 18 -11z m-929 7 c-3 -3
-12 -4 -19 -1 -8 3 -5 6 6 6 11 1 17 -2 13 -5z m-1057 -13 c0 -5 -9 -7 -20 -4
-11 3 -20 7 -20 9 0 2 9 4 20 4 11 0 20 -4 20 -9z m-640 -71 c8 -5 11 -10 5
-10 -5 0 -17 5 -25 10 -8 5 -10 10 -5 10 6 0 17 -5 25 -10z m475 -19 c-2 -2
-17 -5 -34 -6 -26 -2 -28 0 -19 15 9 14 15 15 34 6 12 -6 21 -12 19 -15z m-87
-6 c3 -3 -19 -5 -49 -4 -42 1 -48 3 -29 9 25 8 68 5 78 -5z m-113 -15 c3 -5
-1 -10 -9 -10 -8 0 -18 5 -21 10 -3 6 1 10 9 10 8 0 18 -4 21 -10z m-58 -6
c-3 -3 -12 -4 -19 -1 -8 3 -5 6 6 6 11 1 17 -2 13 -5z m86 -44 c10 0 15 -4 12
-10 -6 -10 -45 -15 -45 -6 0 2 -3 13 -6 23 -6 15 -4 16 7 6 7 -7 21 -13 32
-13z m2197 13 c0 -5 -5 -15 -10 -23 -7 -11 -12 -12 -21 -3 -6 6 -8 16 -5 22 8
12 36 15 36 4z m-2425 -13 c6 0 3 -5 -5 -10 -19 -12 -77 -13 -84 -1 -10 15 8
22 44 17 19 -3 40 -5 45 -6z m2215 -45 c0 -8 -7 -15 -16 -15 -14 0 -14 3 -4
15 7 8 14 15 16 15 2 0 4 -7 4 -15z m210 -30 c0 -8 -4 -15 -9 -15 -13 0 -22
16 -14 24 11 11 23 6 23 -9z m-2589 -32 c5 -14 8 -28 5 -30 -4 -5 -36 50 -36
62 0 14 22 -9 31 -32z m2535 -14 c10 -17 -13 -36 -27 -22 -12 12 -4 33 11 33
5 0 12 -5 16 -11z m-2298 -86 c-10 -2 -26 -2 -35 0 -10 3 -2 5 17 5 19 0 27
-2 18 -5z m408 -2 c-3 -5 -15 -7 -26 -4 -28 7 -25 13 6 13 14 0 23 -4 20 -9z
m133 -17 c3 -4 -6 -4 -21 -2 -16 3 -28 1 -28 -4 0 -5 -8 -4 -19 1 -10 6 -22 7
-26 3 -5 -4 -5 -2 -2 4 6 11 86 9 96 -2z m178 -10 c-3 -3 -12 -4 -19 -1 -8 3
-5 6 6 6 11 1 17 -2 13 -5z m-807 -48 c0 -3 -4 -8 -10 -11 -5 -3 -10 -1 -10 4
0 6 5 11 10 11 6 0 10 -2 10 -4z m250 -34 c0 -4 -16 -6 -35 -4 -19 2 -35 6
-35 8 0 2 16 4 35 4 19 0 35 -4 35 -8z m-225 -72 c3 -5 1 -10 -4 -10 -6 0 -11
5 -11 10 0 6 2 10 4 10 3 0 8 -4 11 -10z"/>
<path d="M3334 4935 c-2 -20 1 -23 11 -15 8 6 11 18 8 26 -8 22 -18 17 -19
-11z"/>
<path d="M2856 4105 c-3 -8 -1 -15 4 -15 6 0 10 7 10 15 0 8 -2 15 -4 15 -2 0
-6 -7 -10 -15z"/>
<path d="M4428 4133 c6 -2 18 -2 25 0 6 3 1 5 -13 5 -14 0 -19 -2 -12 -5z"/>
<path d="M4374 3385 c-2 -28 11 -25 19 5 3 11 0 20 -6 20 -7 0 -13 -11 -13
-25z"/>
<path d="M1920 2989 c0 -5 5 -7 10 -4 6 3 10 8 10 11 0 2 -4 4 -10 4 -5 0 -10
-5 -10 -11z"/>
<path d="M1856 2981 c-11 -4 -15 -10 -10 -13 5 -4 18 0 29 8 20 15 12 17 -19
5z"/>
<path d="M1926 2921 c-3 -5 3 -11 14 -14 21 -5 32 1 24 14 -7 12 -31 11 -38 0z"/>
<path d="M1679 2884 c-6 -8 -9 -17 -5 -21 3 -3 6 -1 6 7 0 9 3 10 13 1 13 -10
27 -6 27 10 0 15 -29 17 -41 3z"/>
<path d="M1510 2710 c-11 -7 -9 -11 13 -19 35 -13 61 -13 29 0 -13 5 -20 13
-17 19 8 12 -5 13 -25 0z"/>
<path d="M3111 6204 c13 -16 29 -19 29 -5 0 5 -9 11 -21 14 -16 4 -18 3 -8 -9z"/>
<path d="M3560 6162 c0 -7 -7 -12 -15 -12 -17 0 -20 -25 -5 -35 11 -6 34 44
25 53 -3 3 -5 0 -5 -6z"/>
<path d="M3154 6126 c11 -9 24 -16 30 -16 12 0 7 5 -24 19 -24 11 -24 11 -6
-3z"/>
<path d="M3435 6110 c-3 -5 -1 -10 4 -10 6 0 11 5 11 10 0 6 -2 10 -4 10 -3 0
-8 -4 -11 -10z"/>
<path d="M3430 6070 c0 -5 7 -7 15 -4 8 4 15 8 15 10 0 2 -7 4 -15 4 -8 0 -15
-4 -15 -10z"/>
<path d="M1776 5984 c-11 -7 -16 -17 -13 -21 4 -4 15 1 24 10 22 21 14 30 -11
11z"/>
<path d="M1710 5930 c-8 -5 -11 -12 -7 -16 4 -4 13 -2 19 4 15 15 7 24 -12 12z"/>
<path d="M5135 5920 c3 -5 8 -10 11 -10 2 0 4 5 4 10 0 6 -5 10 -11 10 -5 0
-7 -4 -4 -10z"/>
<path d="M3136 5771 c-4 -6 -4 -21 -1 -34 5 -18 12 -23 26 -20 11 3 16 10 12
17 -4 6 -8 17 -8 25 0 17 -21 26 -29 12z"/>
<path d="M3670 5740 c0 -5 6 -10 14 -10 8 0 18 5 21 10 3 6 -3 10 -14 10 -12
0 -21 -4 -21 -10z"/>
<path d="M1786 5625 c-22 -19 -34 -35 -28 -35 7 0 29 16 50 35 48 45 29 45
-22 0z"/>
<path d="M1424 5588 l-19 -23 23 19 c12 11 22 21 22 23 0 8 -8 2 -26 -19z"/>
<path d="M1320 5585 c-7 -9 -8 -15 -2 -15 5 0 12 7 16 15 3 8 4 15 2 15 -2 0
-9 -7 -16 -15z"/>
<path d="M2722 5584 c10 -10 20 -16 22 -13 3 3 -5 11 -17 18 -21 13 -21 12 -5
-5z"/>
<path d="M2665 5577 c57 -40 75 -48 75 -38 0 6 -18 20 -40 31 -45 23 -64 27
-35 7z"/>
<path d="M5069 5560 c-19 -10 -41 -26 -48 -34 -8 -9 -18 -16 -23 -16 -11 0
-68 -40 -86 -60 -12 -13 -13 -13 -6 0 4 8 -14 -6 -39 -32 -26 -27 -53 -47 -59
-45 -7 1 -14 -8 -16 -20 -3 -22 -4 -22 -28 -6 -38 25 -42 6 -4 -25 24 -21 32
-34 28 -49 -4 -17 -2 -20 11 -16 33 11 97 42 116 57 20 15 20 15 -2 16 -31 0
-30 28 1 40 26 9 44 30 27 30 -6 0 -11 -4 -11 -10 0 -5 -5 -10 -12 -10 -7 0
-26 -14 -44 -31 -23 -22 -34 -27 -39 -18 -5 8 -4 10 3 5 7 -4 12 -2 12 3 0 6
-6 11 -12 11 -7 0 -5 5 5 11 9 6 15 14 12 18 -7 13 22 34 36 25 7 -4 10 -3 7
2 -4 5 10 20 29 34 19 14 44 33 54 43 10 9 24 17 29 17 6 0 10 4 10 9 0 5 9
13 20 16 17 6 81 56 69 55 -2 -1 -20 -9 -40 -20z"/>
<path d="M4051 5539 c-31 -25 -23 -33 9 -9 14 10 23 21 20 23 -3 3 -16 -3 -29
-14z"/>
<path d="M2842 5521 c56 -28 128 -44 128 -29 0 4 -11 8 -25 8 -14 0 -53 11
-87 25 -80 33 -87 31 -16 -4z"/>
<path d="M3943 5501 c-51 -16 -77 -31 -55 -31 6 0 23 5 37 12 22 10 28 9 36
-3 7 -12 9 -12 9 2 0 9 10 21 23 27 32 15 10 13 -50 -7z"/>
<path d="M4870 5489 c-25 -17 -52 -34 -60 -39 -8 -5 -12 -11 -9 -14 8 -8 70
25 97 52 13 13 28 19 39 16 15 -5 16 -4 3 5 -19 14 -18 14 -70 -20z"/>
<path d="M3793 5473 c15 -2 39 -2 55 0 15 2 2 4 -28 4 -30 0 -43 -2 -27 -4z"/>
<path d="M3956 5433 c-6 -14 -5 -15 5 -6 7 7 10 15 7 18 -3 3 -9 -2 -12 -12z"/>
<path d="M4960 5409 c0 -5 5 -7 10 -4 6 3 10 8 10 11 0 2 -4 4 -10 4 -5 0 -10
-5 -10 -11z"/>
<path d="M1820 5385 c-25 -13 -53 -24 -63 -25 -11 0 -21 -9 -24 -19 -7 -26
-29 -30 -80 -15 -39 11 -58 4 -33 -11 6 -4 8 -10 5 -15 -3 -4 10 -15 28 -23
60 -28 74 -29 89 -9 7 10 31 25 52 32 l40 13 -24 19 c-12 10 -21 20 -19 22 2
1 24 15 49 29 56 33 41 35 -20 2z"/>
<path d="M3899 5383 c-13 -16 -12 -17 4 -4 9 7 17 15 17 17 0 8 -8 3 -21 -13z"/>
<path d="M3722 5265 c0 -16 2 -22 5 -12 2 9 2 23 0 30 -3 6 -5 -1 -5 -18z"/>
<path d="M3230 5254 c0 -18 -5 -25 -17 -23 -29 2 -43 0 -43 -10 0 -4 11 -6 24
-4 13 3 27 0 30 -6 4 -6 1 -12 -6 -13 -7 0 -20 -2 -28 -3 -8 -1 -23 5 -32 13
-15 12 -16 12 -11 -7 3 -12 8 -21 12 -22 3 0 22 -1 41 -3 l35 -3 3 54 c2 29 1
53 -2 53 -3 0 -6 -12 -6 -26z"/>
<path d="M2370 4966 c0 -13 -6 -26 -12 -28 -14 -5 -12 -75 2 -93 4 -5 6 -18 5
-28 -2 -9 1 -15 6 -11 5 3 9 14 9 24 0 12 5 17 14 14 10 -4 13 3 10 28 -7 54
-13 93 -15 98 -1 3 -1 8 0 13 0 4 -3 7 -9 7 -5 0 -10 -11 -10 -24z m15 -86 c3
-5 1 -10 -4 -10 -6 0 -11 5 -11 10 0 6 2 10 4 10 3 0 8 -4 11 -10z"/>
<path d="M3080 4980 c18 -12 30 -13 30 -2 0 4 -10 9 -22 9 -18 2 -20 0 -8 -7z"/>
<path d="M2948 4973 c7 -3 16 -2 19 1 4 3 -2 6 -13 5 -11 0 -14 -3 -6 -6z"/>
<path d="M3135 4970 c3 -5 11 -10 16 -10 6 0 7 5 4 10 -3 6 -11 10 -16 10 -6
0 -7 -4 -4 -10z"/>
<path d="M3171 4953 c0 -4 22 -22 50 -40 27 -17 47 -28 44 -23 -9 15 -95 72
-94 63z"/>
<path d="M3170 4881 c0 -6 4 -13 10 -16 6 -3 7 1 4 9 -7 18 -14 21 -14 7z"/>
<path d="M5565 4765 c16 -13 31 -22 34 -20 5 6 -41 44 -54 44 -5 0 3 -11 20
-24z"/>
<path d="M4984 4762 c3 -6 -3 -14 -15 -17 -20 -7 -19 -9 17 -25 35 -17 42 -17
73 -4 40 17 53 27 31 24 -36 -5 -70 1 -67 12 1 7 -9 14 -22 16 -14 2 -21 0
-17 -6z"/>
<path d="M2401 4593 c-10 -26 -10 -27 4 -9 8 11 15 23 15 28 0 15 -7 8 -19
-19z"/>
<path d="M6137 4613 c-9 -2 -15 -9 -12 -14 4 -5 -1 -9 -9 -9 -9 0 -15 -3 -14
-7 1 -5 -6 -22 -15 -40 -9 -18 -17 -39 -17 -48 0 -8 -5 -15 -12 -15 -6 0 -9
-3 -5 -6 3 -3 -8 -33 -24 -67 -16 -34 -29 -68 -29 -75 0 -7 -19 -22 -42 -33
-73 -34 -162 -103 -179 -140 -9 -19 -25 -70 -34 -114 -21 -95 -35 -124 -69
-151 -36 -26 -123 -134 -135 -167 -6 -16 -18 -27 -29 -27 -11 0 -54 -28 -97
-62 -99 -81 -174 -125 -201 -120 -12 2 -44 -6 -71 -19 -41 -18 -53 -30 -71
-71 -12 -26 -19 -54 -16 -62 3 -8 0 -24 -6 -36 -15 -27 -8 -35 19 -20 26 13
26 9 1 -40 -26 -50 -7 -65 27 -21 13 17 29 31 34 31 14 0 11 -43 -4 -65 -49
-71 -48 -70 -19 -71 15 -1 43 -8 63 -17 33 -13 37 -19 43 -66 10 -76 14 -81
55 -81 20 0 47 -7 60 -17 21 -14 25 -14 35 -1 17 23 64 50 75 44 11 -7 9 -25
-3 -45 -7 -11 -10 -11 -17 0 -7 11 -9 9 -9 -6 0 -11 -9 -28 -21 -38 -14 -13
-19 -27 -17 -49 2 -26 11 -36 47 -55 45 -24 95 -29 120 -14 21 13 64 -5 111
-49 22 -21 51 -39 63 -39 85 -6 97 -4 157 33 73 45 166 63 201 38 13 -9 53
-16 107 -18 48 -2 92 -4 97 -4 23 -2 79 21 110 45 39 31 -22 40 -128 20 -30
-5 -29 -4 13 19 103 57 219 88 239 64 6 -7 20 -24 31 -37 11 -13 22 -22 24
-20 15 15 31 503 16 494 -15 -9 -30 -69 -28 -115 1 -25 -1 -61 -6 -80 -4 -19
-11 -53 -16 -75 -5 -22 -10 -58 -11 -80 -3 -37 -13 -54 -32 -55 -5 0 -6 4 -3
8 3 5 8 55 12 111 5 80 3 102 -6 96 -9 -5 -10 -2 -6 12 4 11 6 36 5 54 0 19
-2 64 -2 101 -1 36 -5 64 -9 61 -5 -2 -8 1 -8 6 0 6 4 11 8 11 5 0 8 15 7 33
-15 215 -64 527 -84 527 -3 0 -12 -9 -19 -20 -7 -11 -18 -20 -25 -20 -6 0 -4
5 6 11 9 5 17 17 17 25 0 8 -4 13 -9 10 -5 -4 -11 -3 -14 1 -2 5 -2 3 -1 -4 2
-6 -4 -17 -12 -24 -12 -10 -14 -7 -12 20 2 22 7 31 20 31 10 0 18 6 18 14 0 9
7 12 20 9 25 -7 25 1 1 41 -11 17 -22 54 -25 82 -6 51 -48 184 -105 329 -48
125 -81 111 -96 -40 -7 -78 -25 -188 -31 -194 -3 -4 -7 40 -7 92 0 23 -14 22
-22 -3 -4 -12 -11 -17 -18 -14 -9 5 -9 4 0 -6 9 -9 8 -22 -3 -54 -26 -76 -24
-72 -34 -57 -4 8 -6 20 -3 27 2 7 0 20 -5 30 -8 14 -13 7 -28 -37 -10 -30 -17
-59 -16 -66 1 -6 -2 -14 -8 -18 -6 -4 -10 -3 -9 2 7 39 -38 43 -73 6 -12 -13
-29 -23 -37 -23 -12 0 -13 -2 -3 -9 10 -6 12 -30 10 -89 -2 -45 -7 -84 -11
-88 -4 -4 -7 -19 -7 -34 0 -15 -9 -35 -20 -45 -19 -17 -20 -17 -20 0 0 27 -27
0 -35 -35 -3 -15 -21 -45 -40 -66 l-34 -39 -1 29 c0 31 -10 31 -14 -1 -2 -10
-20 -28 -42 -40 -22 -12 -72 -56 -113 -98 -59 -61 -77 -75 -94 -70 -15 4 -18
3 -9 -3 10 -6 -2 -15 -40 -31 -29 -12 -61 -26 -71 -32 -11 -6 -44 -14 -75 -19
-34 -6 -61 -16 -67 -26 -22 -36 -80 -84 -101 -84 -11 0 4 71 21 96 17 26 64
53 104 60 14 3 45 14 68 24 24 11 47 20 51 20 5 0 41 32 81 70 60 57 79 70
106 70 30 0 35 5 63 63 28 56 69 105 128 155 32 26 64 89 70 136 10 83 13 103
20 120 9 23 161 121 188 121 16 0 26 13 44 60 13 33 34 74 47 91 13 17 28 50
35 74 13 49 30 80 45 80 5 0 18 12 28 25 18 25 18 25 -5 24 -13 -1 -31 -3 -41
-6z m201 -586 c-17 -34 -27 -44 -40 -41 -10 3 -18 0 -18 -6 0 -7 -7 -10 -15
-6 -11 4 -15 -1 -15 -19 0 -27 -15 -42 -23 -21 -7 18 -79 12 -112 -10 -14 -9
-28 -14 -32 -11 -3 4 6 11 20 16 14 5 28 15 32 21 12 19 -49 -17 -69 -41 -10
-12 -30 -47 -44 -78 -19 -41 -27 -51 -31 -38 -5 12 -16 -11 -36 -68 -16 -48
-32 -88 -35 -90 -4 -2 2 30 12 72 11 41 17 78 14 80 -3 3 -10 -15 -17 -41 -6
-25 -15 -43 -20 -40 -5 3 -9 -2 -9 -12 0 -21 -50 -114 -62 -114 -5 0 -7 4 -3
9 8 15 -55 -19 -107 -57 -27 -19 -48 -38 -48 -43 0 -4 -6 -6 -14 -3 -8 3 -17
1 -21 -5 -3 -6 -15 -11 -26 -11 -11 0 -18 -4 -15 -9 7 -11 -22 -36 -31 -28 -3
4 15 27 41 51 25 25 46 52 46 60 0 26 67 85 104 92 53 9 114 76 107 117 0 4 5
7 12 7 7 0 18 12 24 28 6 15 19 38 27 52 9 14 25 46 37 72 37 83 124 112 181
61 17 -15 21 -16 28 -3 31 55 99 105 130 95 14 -4 22 -1 26 10 4 10 10 13 16
7 5 -5 0 -27 -14 -55z m-98 -175 c-5 -9 -18 -28 -29 -42 l-21 -25 10 35 c6 19
10 36 10 38 0 2 5 0 10 -3 6 -3 10 1 10 10 0 9 5 13 10 10 7 -4 7 -12 0 -23z
m-47 -92 c-3 -11 -10 -23 -16 -27 -5 -3 -8 -2 -5 3 3 5 8 17 11 27 9 24 16 22
10 -3z m-200 -60 c-3 -12 -8 -19 -11 -16 -5 6 5 36 12 36 2 0 2 -9 -1 -20z
m-16 -52 c-3 -8 -6 -5 -6 6 -1 11 2 17 5 13 3 -3 4 -12 1 -19z m-357 -42 c0
-3 -4 -8 -10 -11 -5 -3 -10 -1 -10 4 0 6 5 11 10 11 6 0 10 -2 10 -4z m409
-113 c-10 -21 -26 -55 -34 -76 -9 -23 -26 -44 -46 -55 -17 -9 -51 -30 -75 -45
-49 -32 -64 -29 -64 14 0 30 14 39 24 17 3 -7 4 -4 1 8 -4 13 4 28 22 46 33
30 152 113 173 121 8 3 16 6 17 6 1 1 -7 -16 -18 -36z m-482 -69 c7 3 20 3 28
0 28 -11 -10 -35 -49 -30 -41 6 -65 -11 -95 -65 -14 -27 -16 -40 -8 -48 8 -8
7 -11 -6 -11 -9 0 -20 0 -24 -1 -5 0 -26 -10 -48 -23 -41 -24 -122 -53 -162
-59 -12 -2 -26 -6 -29 -10 -4 -4 -14 -7 -23 -7 -28 1 41 49 79 56 19 4 57 20
84 37 27 17 63 38 79 46 18 10 35 28 40 46 6 17 23 42 40 57 24 22 33 25 55
17 14 -5 31 -8 39 -5z m194 -77 c-13 -13 -26 -3 -16 12 3 6 11 8 17 5 6 -4 6
-10 -1 -17z m-251 3 c-20 -13 -33 -13 -25 0 3 6 14 10 23 10 15 0 15 -2 2 -10z
m130 0 c0 -5 -5 -10 -11 -10 -5 0 -7 5 -4 10 3 6 8 10 11 10 2 0 4 -4 4 -10z
m70 -45 c-7 -8 -18 -15 -25 -15 -7 0 -18 -7 -25 -15 -10 -13 -9 -15 11 -15 16
0 20 -3 11 -8 -7 -5 -23 -8 -35 -7 -16 1 -25 -6 -34 -29 -9 -24 -12 -26 -12
-10 -1 34 41 88 79 101 45 15 44 15 30 -2z m267 -39 c-38 -35 -87 -69 -93 -63
-4 4 8 15 71 66 10 7 33 18 44 20 2 1 -8 -10 -22 -23z m-78 1 c-2 -1 -13 -9
-24 -17 -19 -14 -19 -14 -6 3 7 9 18 17 24 17 6 0 8 -1 6 -3z m-204 -37 c-10
-11 -21 -17 -24 -14 -3 3 3 12 13 20 28 20 32 17 11 -6z m-210 -60 c0 -19
-116 -53 -130 -39 -7 7 -4 14 10 22 55 33 120 42 120 17z m-170 -36 c25 -10
34 -18 26 -23 -7 -4 -11 -14 -9 -22 2 -8 -7 -15 -20 -17 -21 -3 -22 -1 -12 18
9 16 9 25 -1 36 -13 16 -34 20 -24 4 3 -6 -1 -7 -9 -4 -9 3 -13 10 -10 15 7
12 16 11 59 -7z m855 -44 c0 -12 -117 -100 -133 -100 -6 0 16 21 49 46 32 25
61 50 62 55 5 12 22 12 22 -1z m-530 -14 c0 -2 -8 -10 -17 -17 -16 -13 -17
-12 -4 4 13 16 21 21 21 13z m550 -56 c-8 -5 -19 -10 -25 -10 -5 0 -3 5 5 10
8 5 20 10 25 10 6 0 3 -5 -5 -10z m-66 -34 c-10 -8 -21 -12 -24 -10 -5 6 21
24 34 24 6 0 1 -6 -10 -14z m-347 -43 c0 -21 -35 -63 -53 -63 -7 0 -14 -5 -16
-10 -2 -6 -13 -12 -25 -14 -17 -4 -8 9 35 49 31 30 57 54 58 55 0 0 1 -8 1
-17z m-305 -5 c7 -19 -2 -38 -17 -38 -21 0 -28 19 -15 35 15 18 26 19 32 3z"/>
<path d="M6290 4035 c-11 -13 -10 -14 4 -9 9 3 16 10 16 15 0 13 -6 11 -20 -6z"/>
<path d="M2290 4409 c0 -5 5 -7 10 -4 6 3 10 8 10 11 0 2 -4 4 -10 4 -5 0 -10
-5 -10 -11z"/>
<path d="M1117 4380 c-17 -27 -36 -36 -74 -31 -21 3 -15 -6 18 -27 30 -19 75
-19 63 0 -3 5 -1 14 4 21 13 17 24 67 14 67 -4 0 -16 -13 -25 -30z"/>
<path d="M6415 4245 c14 -43 29 -83 35 -89 15 -15 13 -5 -16 76 -36 100 -48
108 -19 13z"/>
<path d="M6375 4260 c10 -75 15 -94 24 -103 18 -18 23 20 8 55 -37 85 -38 86
-32 48z"/>
<path d="M511 4194 c0 -11 3 -14 6 -6 3 7 2 16 -1 19 -3 4 -6 -2 -5 -13z"/>
<path d="M2310 4135 c0 -8 -5 -15 -11 -15 -5 0 -7 -5 -4 -10 4 -6 4 -18 1 -27
-5 -13 -9 -13 -24 -2 -14 11 -15 11 -5 0 6 -7 9 -21 6 -30 -6 -14 -4 -14 14 2
11 9 23 14 26 10 4 -3 7 6 7 21 0 15 5 36 10 47 8 15 7 19 -5 19 -8 0 -15 -7
-15 -15z"/>
<path d="M6454 4114 c3 -9 6 -22 6 -30 0 -9 4 -13 9 -10 11 7 2 56 -11 56 -6
0 -7 -7 -4 -16z"/>
<path d="M6470 4045 c0 -8 4 -15 10 -15 5 0 7 7 4 15 -4 8 -8 15 -10 15 -2 0
-4 -7 -4 -15z"/>
<path d="M966 4009 c-9 -23 -15 -44 -12 -47 3 -2 10 7 16 22 5 15 15 36 20 47
6 11 7 19 1 19 -5 0 -16 -19 -25 -41z"/>
<path d="M456 3993 c-6 -14 -5 -15 5 -6 7 7 10 15 7 18 -3 3 -9 -2 -12 -12z"/>
<path d="M6495 3963 c4 -21 15 -81 25 -133 16 -79 25 -167 34 -324 1 -11 7
-21 15 -24 11 -4 12 11 7 79 -3 46 -8 99 -10 117 -3 18 -8 52 -11 75 -3 23 -8
49 -10 57 -2 8 -6 33 -10 55 -6 44 -34 135 -41 135 -3 0 -2 -17 1 -37z"/>
<path d="M2080 3956 c0 -2 7 -7 16 -10 8 -3 12 -2 9 4 -6 10 -25 14 -25 6z"/>
<path d="M5396 3873 c-11 -11 -6 -35 7 -30 6 2 22 0 34 -4 26 -10 36 0 20 21
-13 16 -50 24 -61 13z"/>
<path d="M5716 3858 c-10 -38 -6 -45 9 -18 17 29 18 40 6 40 -5 0 -11 -10 -15
-22z"/>
<path d="M1661 3841 c-10 -6 -10 -10 -1 -16 7 -4 19 0 28 9 14 13 14 16 2 16
-8 0 -21 -4 -29 -9z"/>
<path d="M5128 3843 c7 -3 16 -2 19 1 4 3 -2 6 -13 5 -11 0 -14 -3 -6 -6z"/>
<path d="M1674 3795 c11 -8 25 -15 30 -15 6 0 2 7 -8 15 -11 8 -25 15 -30 15
-6 0 -2 -7 8 -15z"/>
<path d="M1092 3764 c-6 -3 -10 -10 -6 -15 3 -5 0 -9 -7 -9 -7 0 -9 -3 -6 -7
4 -3 0 -14 -9 -24 -9 -10 -13 -23 -8 -30 5 -9 9 -7 15 7 4 11 25 29 48 39 22
11 39 25 38 30 -4 11 -45 17 -65 9z"/>
<path d="M397 3563 c-10 -16 -11 -121 -2 -111 7 6 17 118 11 118 -3 0 -7 -3
-9 -7z"/>
<path d="M1380 3463 c0 -6 7 -16 14 -23 8 -6 29 -33 46 -60 17 -26 41 -50 53
-54 20 -5 20 -4 -4 17 -15 12 -36 38 -47 58 -24 39 -62 78 -62 62z"/>
<path d="M1810 3434 c8 -4 18 -13 22 -20 5 -6 17 -10 28 -7 25 7 26 23 3 23
-10 0 -29 3 -43 5 -14 3 -18 2 -10 -1z"/>
<path d="M387 3353 c-8 -13 -3 -213 5 -213 4 0 6 49 5 110 -1 60 -3 110 -4
110 -1 0 -4 -3 -6 -7z"/>
<path d="M4976 3323 c-6 -14 -5 -15 5 -6 7 7 10 15 7 18 -3 3 -9 -2 -12 -12z"/>
<path d="M1530 3325 c0 -10 94 -56 110 -53 13 2 -3 13 -45 30 -36 15 -65 25
-65 23z"/>
<path d="M4955 2908 c-36 -80 -64 -164 -105 -308 -36 -128 -56 -174 -71 -165
-5 4 -8 3 -7 -2 1 -4 -8 -28 -21 -53 -95 -183 -140 -264 -177 -323 -51 -78
-58 -100 -13 -39 17 23 33 42 35 42 12 0 -40 -80 -78 -121 -24 -25 -38 -38
-33 -29 6 9 -6 -1 -26 -22 -20 -21 -39 -38 -42 -38 -4 0 -17 -10 -30 -22 -28
-28 -79 -64 -83 -61 -2 2 -14 -7 -26 -18 -13 -11 -36 -31 -53 -45 l-30 -24 30
12 c17 7 70 36 119 65 49 29 93 50 99 46 5 -3 3 -9 -4 -14 -8 -5 -11 -9 -6 -9
4 0 26 12 50 26 l42 27 -25 -28 c-35 -38 -134 -102 -173 -111 -18 -3 -41 -12
-51 -20 -18 -12 -18 -13 7 -19 31 -8 107 31 199 101 31 24 60 44 63 44 4 0 35
27 70 61 61 58 115 144 129 202 3 15 10 27 15 27 11 0 -7 -82 -49 -226 -17
-56 -30 -104 -30 -107 0 -3 16 3 36 14 36 18 36 18 75 -7 44 -27 65 -24 49 7
-13 23 7 35 44 25 19 -5 29 1 50 29 35 46 76 47 126 5 39 -34 50 -37 50 -15 0
21 37 19 49 -2 9 -18 11 -25 11 -43 0 -5 6 -10 14 -10 8 0 21 -9 29 -20 18
-26 73 -27 119 -3 29 16 34 23 25 33 -10 10 -7 11 13 5 21 -6 17 -1 -18 30
-23 20 -39 41 -36 47 4 7 2 8 -4 4 -7 -4 -12 -1 -12 7 0 8 -6 14 -12 13 -7 0
-13 4 -13 9 0 6 4 9 11 7 6 -1 11 4 11 12 0 8 -6 12 -14 9 -8 -3 -23 3 -33 12
-24 21 -26 37 -5 29 8 -4 13 -10 10 -14 -3 -4 2 -10 10 -13 20 -8 7 23 -20 46
-19 18 -19 18 7 2 15 -9 31 -16 35 -16 4 1 25 -10 46 -24 41 -26 57 -31 57
-16 0 5 -12 12 -26 15 -14 4 -37 18 -50 31 -13 13 -24 21 -24 17 -1 -4 -9 3
-19 15 -10 12 -22 19 -26 15 -5 -4 -5 -1 -1 6 4 7 1 12 -8 12 -20 0 -29 17
-15 26 8 4 9 3 5 -4 -9 -16 5 -15 26 2 15 11 14 14 -13 30 -17 10 -28 20 -26
23 7 6 60 -28 71 -45 7 -12 10 -12 17 -1 7 11 9 10 9 -3 0 -10 4 -18 9 -18 10
0 35 -58 34 -78 -1 -8 5 -11 15 -7 9 3 13 3 10 -1 -4 -3 5 -16 20 -29 15 -13
23 -27 19 -31 -4 -5 -13 -2 -18 6 -8 12 -9 11 -6 -5 2 -11 9 -19 15 -18 7 2
12 -1 12 -6 0 -9 48 -26 63 -22 5 1 6 -3 2 -9 -4 -7 -12 -7 -26 0 -10 6 -19 8
-19 5 0 -3 -10 -1 -21 6 -20 10 -21 9 -16 -10 4 -18 3 -20 -9 -10 -7 6 -11 15
-8 20 3 5 -5 9 -17 9 -21 0 -20 -1 7 -25 16 -14 41 -37 57 -51 15 -14 27 -22
27 -17 0 4 10 -3 23 -17 12 -14 29 -25 37 -25 8 0 14 -6 13 -12 -2 -7 0 -13 5
-14 33 -3 50 -11 68 -33 12 -14 25 -22 28 -19 3 4 6 1 6 -5 0 -14 -2 -15 -34
-2 -47 17 -30 -14 49 -89 77 -73 91 -80 114 -58 11 10 11 8 2 -10 -6 -12 -8
-29 -5 -37 4 -10 1 -16 -8 -16 -8 0 -36 -26 -61 -57 -98 -125 -311 -327 -472
-449 -71 -54 -280 -194 -289 -194 -5 0 -187 -108 -194 -115 -27 -27 250 123
357 193 105 69 251 171 269 189 7 7 16 13 19 13 3 0 -20 -27 -51 -61 -86 -93
-73 -105 31 -27 170 126 438 392 610 605 64 80 74 86 32 23 -39 -58 -81 -114
-144 -189 -32 -37 -133 -147 -218 -235 -43 -45 -102 -105 -130 -135 l-52 -54
45 34 c54 41 208 191 280 274 29 33 66 75 83 93 37 42 214 278 228 303 7 14 6
19 -3 19 -7 0 -65 23 -127 50 -63 28 -117 50 -119 50 -2 0 13 -23 33 -51 20
-28 35 -53 32 -55 -5 -5 -137 82 -168 113 -15 13 -35 45 -44 69 -13 33 -23 45
-43 50 -34 7 -103 42 -122 62 -13 14 -13 15 0 6 9 -5 3 2 -12 16 -16 14 -28
31 -28 37 0 7 -5 12 -12 10 -7 -1 -12 3 -13 8 0 12 -52 61 -147 139 -36 31
-76 72 -88 91 -12 20 -25 34 -28 31 -3 -3 -11 -1 -19 6 -21 17 -23 6 -7 -47 8
-28 14 -52 14 -55 0 -3 5 -5 10 -5 6 0 9 -4 8 -10 -1 -5 -8 -9 -15 -7 -7 2
-12 -3 -11 -10 4 -17 -24 -17 -29 0 -3 6 4 12 14 12 16 1 16 3 -5 20 -20 16
-21 20 -7 33 17 17 20 31 6 22 -5 -3 -13 4 -16 16 -4 11 -13 18 -20 15 -21 -8
-25 5 -10 34 8 15 11 30 8 34 -10 10 -11 46 -1 46 4 0 8 5 8 11 0 5 -4 7 -10
4 -6 -4 -10 7 -10 25 0 23 -10 42 -34 66 -18 18 -31 36 -28 39 3 3 -2 5 -11 5
-8 0 -17 -5 -19 -12 -10 -28 -27 7 -26 55 0 40 2 47 9 30 8 -21 29 -32 29 -16
0 9 -51 163 -61 184 -4 9 -1 49 7 89 19 101 5 118 -31 38z m-185 -769 c0 -22
-4 -38 -8 -35 -8 5 -4 76 4 76 2 0 4 -18 4 -41z m490 5 c0 -2 -9 -4 -21 -4
-11 0 -18 4 -14 10 5 8 35 3 35 -6z m-68 -138 c7 4 8 2 4 -5 -9 -13 -26 -5
-25 12 0 9 2 8 6 -1 2 -6 10 -9 15 -6z m59 -133 c13 -16 12 -17 -3 -4 -17 13
-22 21 -14 21 2 0 10 -8 17 -17z m219 -1 c7 -8 7 -9 -1 -3 -6 5 -18 7 -25 4
-8 -3 -14 -1 -14 5 0 13 27 9 40 -6z m-230 -98 c0 -2 -7 -4 -15 -4 -8 0 -15 4
-15 10 0 5 7 7 15 4 8 -4 15 -8 15 -10z"/>
<path d="M5166 2781 c-4 -6 -5 -24 -2 -39 3 -15 8 -49 11 -77 9 -75 10 -78 78
-133 34 -28 80 -77 102 -109 21 -32 52 -73 69 -90 54 -59 -3 -28 -77 41 -21
20 -32 24 -42 16 -9 -7 -19 -5 -38 10 -14 11 -28 20 -31 20 -10 0 14 -41 39
-68 12 -13 28 -42 34 -63 8 -28 21 -44 39 -52 15 -6 41 -22 58 -34 17 -13 37
-23 44 -23 7 0 28 -9 47 -21 30 -19 47 -43 105 -155 20 -37 48 -50 77 -34 28
15 67 3 86 -26 8 -13 22 -24 29 -24 8 0 24 -11 37 -25 13 -13 29 -25 34 -25 6
0 26 -13 45 -28 19 -15 41 -27 48 -26 6 1 26 2 43 3 28 1 31 3 25 27 -6 23 -5
25 11 19 10 -5 41 -9 70 -9 36 -1 58 -7 74 -21 18 -15 20 -16 10 -2 -12 15 -9
21 11 19 3 -1 11 5 18 13 9 11 7 12 -8 8 -11 -2 -23 1 -27 8 -5 7 -4 10 2 6 5
-3 10 0 10 8 0 8 -4 12 -9 9 -4 -3 -8 0 -8 6 0 6 -4 9 -9 6 -5 -4 -7 2 -4 12
2 10 -3 24 -11 31 -9 8 -16 10 -16 5 -1 -5 -7 2 -15 16 -8 14 -14 19 -15 13 0
-18 -30 -16 -30 1 0 13 -27 31 -42 28 -5 -1 -8 3 -8 8 0 7 -6 7 -20 0 -16 -8
-20 -8 -20 4 0 8 6 16 13 19 6 2 4 3 -6 1 -9 -1 -24 4 -31 12 -8 8 -19 14 -25
14 -6 0 -11 6 -11 13 0 7 -3 8 -8 2 -9 -13 -32 -17 -32 -6 0 5 6 12 13 15 6 3
0 4 -15 2 -20 -2 -29 2 -33 16 -4 10 -11 16 -16 13 -5 -4 -9 1 -9 10 0 10 -5
13 -12 9 -7 -4 -10 -4 -6 1 11 12 -12 47 -27 41 -8 -3 -15 3 -17 12 -3 14 -10
10 -37 -18 -19 -19 -30 -29 -26 -22 8 15 -24 44 -39 34 -5 -3 -6 3 -2 13 7 18
6 18 -14 0 -20 -18 -21 -18 -45 5 -17 16 -22 28 -16 39 5 9 7 24 6 33 -2 9 4
23 12 29 11 10 20 9 43 -4 36 -22 37 -22 43 9 3 19 -2 32 -19 47 -13 11 -24
26 -24 32 0 21 -59 57 -83 49 -12 -4 -24 -5 -26 -3 -2 2 -7 -6 -12 -18 -5 -13
-16 -23 -24 -23 -9 0 -13 5 -10 10 3 6 1 10 -5 10 -6 0 -16 14 -21 30 -6 17
-17 30 -25 30 -8 0 -14 4 -14 9 0 5 -11 12 -25 15 -15 4 -30 18 -36 33 -8 22
-12 24 -19 13 -8 -13 -12 -12 -27 4 -17 17 -17 18 -1 13 21 -7 30 4 18 23 -7
12 -12 12 -22 2 -19 -19 -31 -14 -26 12 4 18 -1 28 -19 37 -12 7 -23 20 -23
30 0 10 -5 21 -10 24 -6 4 -7 11 -4 17 4 7 2 8 -4 4 -7 -4 -12 0 -13 11 0 16
-1 16 -9 -2 -5 -11 -9 -14 -9 -7 -1 6 -8 12 -17 12 -12 0 -14 3 -6 13 6 7 7
18 3 26 -6 9 -10 10 -15 2z m291 -327 c-3 -3 -12 -4 -19 -1 -8 3 -5 6 6 6 11
1 17 -2 13 -5z m83 -225 c0 -25 -33 -22 -38 4 -2 12 3 17 17 17 15 0 21 -6 21
-21z m650 -363 c0 -3 -4 -8 -10 -11 -5 -3 -10 -1 -10 4 0 6 5 11 10 11 6 0 10
-2 10 -4z"/>
<path d="M6478 2739 c-30 -87 -67 -264 -56 -270 6 -4 7 -16 3 -29 -6 -20 -4
-22 14 -17 12 3 19 1 15 -4 -3 -5 -16 -9 -28 -9 -17 0 -27 -8 -34 -27 -22 -59
-32 -96 -27 -103 3 -5 1 -11 -5 -15 -5 -3 -10 -15 -10 -26 0 -10 -4 -19 -10
-19 -5 0 -10 6 -10 13 0 8 -3 7 -10 -3 -5 -9 -5 -19 0 -24 19 -19 39 6 66 86
26 73 29 79 32 50 2 -18 -2 -40 -9 -48 -6 -8 -9 -17 -6 -21 4 -3 2 -12 -4 -20
-9 -9 -8 -13 0 -13 7 0 3 -10 -9 -22 -21 -23 -27 -58 -10 -58 14 0 25 26 50
115 12 44 27 86 32 93 6 7 8 32 4 61 -5 41 -3 52 12 63 28 20 31 28 56 148 23
107 23 123 -2 98 -7 -7 -12 -8 -12 -2 0 6 -6 19 -14 29 -12 17 -14 15 -28 -26z
m29 -11 c-3 -8 -6 -5 -6 6 -1 11 2 17 5 13 3 -3 4 -12 1 -19z"/>
<path d="M6374 2760 c-27 -25 -144 -53 -239 -56 -55 -1 -113 -7 -128 -13 -39
-15 -52 -14 -38 3 15 17 1 28 -19 15 -20 -12 -43 -11 -35 1 10 16 -16 11 -65
-12 -25 -11 -60 -20 -77 -19 -44 3 -56 -5 -43 -30 8 -14 21 -19 55 -19 25 0
45 -4 45 -10 0 -5 5 -10 11 -10 5 0 7 5 4 10 -4 6 14 10 47 10 29 0 64 3 78 5
14 3 19 3 13 -1 -20 -9 -15 -20 8 -21 12 -1 27 -7 33 -14 8 -9 6 -10 -8 -5
-11 4 -22 2 -26 -4 -3 -5 -26 -13 -51 -16 -24 -3 -50 -7 -57 -10 -23 -7 -2
-24 31 -25 29 0 30 -1 10 -9 -13 -5 -23 -11 -23 -14 0 -2 24 -27 52 -56 l53
-52 65 7 c36 3 88 8 115 11 28 2 66 6 85 9 31 5 33 4 17 -8 -17 -12 -17 -13 2
-13 12 0 21 4 21 9 0 4 5 5 10 2 6 -3 15 -3 22 1 8 5 6 10 -8 16 -15 7 -14 8
8 5 15 -2 27 -1 26 2 -1 3 6 23 16 43 9 21 23 65 30 98 8 33 15 62 16 65 0 3
8 21 16 42 9 20 17 45 19 55 4 19 -10 25 -20 8 -4 -6 -11 -7 -17 -4 -7 4 -8 2
-4 -4 3 -6 -2 -16 -12 -21 -23 -12 -36 -3 -21 15 12 14 -3 28 -17 14z m-504
-86 c0 -2 -12 -4 -27 -4 -21 0 -24 3 -14 9 13 8 41 5 41 -5z m43 -1 c-7 -2
-19 -2 -25 0 -7 3 -2 5 12 5 14 0 19 -2 13 -5z m82 -133 c3 -5 2 -10 -4 -10
-5 0 -13 5 -16 10 -3 6 -2 10 4 10 5 0 13 -4 16 -10z"/>
<path d="M670 2716 l-45 -13 39 -16 c45 -20 58 -21 109 -6 46 12 47 21 4 37
-39 14 -48 14 -107 -2z"/>
<path d="M1126 2711 c-5 -8 47 -21 88 -21 15 0 16 3 6 15 -13 16 -85 21 -94 6z"/>
<path d="M450 2623 c0 -4 5 -15 10 -23 8 -13 10 -13 10 2 0 9 -4 20 -10 23 -5
3 -10 3 -10 -2z"/>
<path d="M4468 2616 c-13 -12 -15 -29 -12 -68 4 -45 1 -57 -19 -82 l-25 -28 5
41 c4 32 2 41 -11 41 -9 0 -18 -13 -22 -35 -3 -19 -14 -40 -23 -45 -13 -8 -13
-9 -1 -10 12 0 11 -3 -3 -11 -12 -7 -15 -15 -8 -27 10 -21 5 -36 -28 -87 -15
-22 -35 -59 -46 -82 -10 -24 -22 -43 -27 -43 -4 0 -8 -6 -8 -12 0 -7 -19 -24
-42 -38 -22 -14 -51 -36 -63 -50 -90 -98 -125 -142 -125 -153 0 -11 -18 -22
-92 -55 -4 -2 -5 6 -3 18 3 18 2 20 -10 10 -8 -7 -15 -9 -15 -4 0 5 -7 0 -16
-11 -8 -11 -16 -18 -17 -16 -3 7 -50 -11 -64 -24 -6 -7 -9 -16 -5 -19 3 -4 -2
-4 -12 0 -14 5 -17 4 -12 -4 4 -7 1 -12 -7 -12 -8 0 -41 -12 -73 -26 -101 -45
-106 -46 -95 -26 13 24 276 212 296 212 7 0 41 13 76 29 72 33 86 52 174 233
52 107 80 142 95 118 8 -13 12 -13 26 2 15 14 15 21 4 48 -12 28 -34 37 -35
14 -1 -17 -42 -74 -48 -67 -4 3 -15 -1 -25 -10 -21 -19 -32 -13 -32 18 0 33
-12 38 -29 13 -26 -38 -49 -34 -57 9 -7 37 -7 37 -17 13 -22 -56 -38 -90 -43
-90 -3 0 -2 5 1 10 3 6 1 10 -5 10 -7 0 -10 7 -6 18 4 10 -4 6 -18 -10 -14
-16 -27 -28 -30 -28 -2 0 -8 26 -11 58 -8 60 -35 116 -65 132 -20 11 -53 3
-45 -10 3 -4 -4 -10 -15 -13 -26 -7 -39 -43 -42 -119 -3 -62 -3 -63 26 -68 26
-4 31 -11 43 -59 8 -30 11 -61 7 -70 -4 -9 -7 -19 -6 -22 0 -3 -12 -4 -27 -1
-23 3 -28 9 -29 34 0 17 -5 35 -10 40 -10 10 -92 -30 -99 -49 -8 -21 -23 -15
-23 9 0 16 -11 6 -45 -42 -49 -70 -63 -82 -85 -75 -10 3 -27 -15 -49 -50 -28
-45 -41 -57 -74 -66 -22 -6 -57 -21 -78 -35 -21 -13 -43 -24 -49 -24 -5 0 -10
-5 -10 -12 0 -6 -3 -9 -6 -5 -3 3 -21 -3 -39 -13 -48 -27 -52 -12 -8 28 48 44
26 32 -55 -30 -59 -45 -91 -61 -77 -39 3 5 -4 12 -14 16 -14 4 -18 12 -14 23
6 16 5 16 -13 0 -11 -10 -29 -19 -40 -21 -25 -3 -70 -35 -61 -43 3 -3 -15 -17
-41 -31 -54 -28 -78 -47 -47 -38 12 4 8 0 -7 -9 -31 -18 -101 -29 -168 -27
-38 1 -53 -5 -96 -37 -28 -21 -69 -47 -90 -57 -21 -9 -45 -22 -52 -28 -8 -6
-24 -13 -35 -14 -12 -2 -26 -8 -31 -13 -6 -6 -17 -10 -26 -10 -9 0 -27 -11
-39 -24 -12 -13 -41 -29 -64 -35 -39 -9 -69 -13 -227 -26 -30 -2 -80 -7 -110
-10 -30 -3 -98 -7 -150 -9 -52 -3 -148 -8 -212 -12 -93 -5 -121 -4 -135 7 -15
13 -15 12 -5 -7 33 -61 271 -261 482 -403 221 -149 340 -215 440 -246 30 -9
71 -26 90 -36 l35 -20 -35 6 c-64 10 -166 54 -435 187 -79 40 -172 107 -241
174 -58 56 -69 62 -77 42 -2 -8 -69 53 -154 139 -120 123 -155 153 -177 153
-15 0 -39 8 -54 18 l-27 17 23 -30 c57 -73 234 -245 357 -346 243 -199 415
-297 780 -443 252 -102 385 -142 592 -181 176 -32 326 -43 563 -39 202 3 261
6 335 19 17 3 50 7 75 11 36 4 168 30 250 49 203 47 474 154 705 280 281 153
615 433 802 671 l33 41 -60 17 c-44 13 -69 27 -97 57 -36 38 -38 39 -43 18 -5
-20 -11 -17 -66 39 -45 44 -64 58 -72 50 -8 -8 -23 -8 -53 1 -23 7 -45 9 -50
4 -4 -4 18 -36 50 -71 l57 -62 -38 0 c-31 0 -47 8 -79 38 -22 20 -47 43 -55
51 -8 7 -18 27 -21 43 -3 16 -14 33 -24 39 -11 5 -19 17 -19 27 0 10 -3 13 -8
7 -14 -20 -30 -15 -25 8 5 22 5 22 -10 2 -8 -11 -13 -23 -11 -27 2 -4 0 -9 -6
-13 -11 -7 -13 -57 -4 -104 4 -17 11 -28 17 -24 6 4 7 1 2 -6 -4 -8 6 -28 25
-52 18 -22 30 -42 27 -45 -7 -7 -37 7 -37 17 0 9 -11 25 -36 51 -6 7 -8 22 -6
35 5 25 -15 56 -29 48 -4 -3 -5 -13 -2 -23 6 -14 4 -15 -8 -5 -12 10 -19 7
-39 -17 -28 -33 -40 -38 -40 -14 0 8 -4 12 -10 9 -5 -3 -10 1 -10 9 0 8 -5 18
-11 22 -8 4 -9 0 -4 -15 4 -13 2 -21 -5 -21 -7 0 -10 -7 -6 -15 3 -9 0 -15 -9
-15 -8 0 -15 -5 -15 -12 0 -6 -7 -3 -15 8 -11 14 -14 15 -15 4 0 -12 -2 -12
-9 -2 -7 11 -9 11 -14 -2 -4 -9 -2 -16 3 -16 6 0 10 -4 10 -10 0 -5 -6 -7 -14
-4 -8 3 -17 -3 -20 -14 -4 -11 -14 -23 -22 -26 -9 -4 -12 -2 -8 5 4 6 1 15 -6
19 -7 4 -12 20 -12 34 0 15 -4 29 -9 32 -5 3 -9 0 -9 -5 0 -6 -7 -11 -15 -11
-11 0 -15 11 -15 38 -1 37 -1 37 -18 16 -18 -22 -18 -22 -31 22 -15 49 -26 55
-35 22 -5 -19 -8 -20 -15 -8 -9 12 -14 11 -40 -8 -17 -12 -38 -22 -47 -22 -10
0 -14 -3 -11 -6 4 -4 -8 -15 -26 -24 -23 -13 -40 -15 -62 -9 -39 12 -38 12
-32 -11 3 -11 3 -20 1 -20 -15 0 -75 38 -114 72 -33 30 -50 38 -67 33 -13 -3
-32 -1 -43 5 -25 13 -68 -12 -76 -44 -8 -33 -12 -59 -13 -78 -1 -10 -11 -23
-23 -29 -23 -12 -23 -12 -4 10 13 14 16 25 9 32 -6 6 -7 28 -3 55 7 43 6 45
-14 40 -56 -15 -245 -81 -276 -96 -40 -20 -126 -40 -173 -40 -27 1 -29 2 -14
11 10 6 25 8 33 5 8 -3 14 -1 14 4 0 5 10 15 23 21 21 12 21 11 7 -7 -12 -14
-9 -14 14 4 16 12 36 22 45 22 22 0 77 21 136 52 72 37 176 78 185 73 4 -3 13
2 20 10 7 8 21 15 31 15 11 0 19 4 19 9 0 5 8 11 18 15 18 6 54 27 62 37 3 3
29 22 58 42 29 19 48 38 43 41 -5 3 -25 -6 -46 -20 -33 -22 -86 -53 -222 -130
-23 -13 -55 -29 -70 -35 l-28 -10 23 21 c38 36 21 43 -22 9 -19 -15 -24 -24
-16 -29 8 -5 7 -9 -5 -13 -9 -4 -13 -3 -10 3 3 6 1 10 -6 10 -15 0 68 66 103
82 15 7 25 15 23 19 -3 3 4 14 15 24 11 10 17 21 15 25 -3 4 2 13 10 20 8 7
15 9 15 6 0 -4 6 -2 13 4 6 6 44 29 82 51 74 42 94 53 137 82 35 23 38 22 25
-13 -15 -39 -3 -49 26 -21 13 12 30 19 39 16 8 -3 23 3 33 15 10 11 13 20 8
20 -6 0 -13 -7 -17 -15 -3 -8 -11 -15 -17 -15 -7 0 -2 11 10 24 13 14 29 22
35 20 7 -3 19 2 26 10 7 9 16 13 21 10 5 -3 8 -2 7 3 -2 4 9 24 23 43 35 47
89 156 138 280 l21 55 -42 -50 c-101 -117 -113 -128 -126 -112 -10 12 -9 14 9
13 14 -1 23 6 25 17 2 14 -2 17 -14 12 -12 -4 -10 1 6 15 12 11 22 24 22 28
-1 4 -22 -17 -48 -46 -34 -37 -53 -51 -65 -46 -11 4 -28 -6 -52 -33 l-36 -38
21 40 c12 22 37 59 56 82 50 61 41 69 -21 19 -54 -45 -95 -71 -95 -62 0 7 103
130 112 134 15 7 53 42 43 41 -23 -3 -26 2 -11 17 9 8 14 19 11 24 -3 5 0 12
6 16 8 5 9 3 4 -7 -8 -12 -6 -12 9 0 11 9 13 17 6 21 -6 4 2 17 19 34 27 26
32 56 9 56 -6 0 -4 -8 3 -17 13 -16 12 -17 -3 -4 -10 7 -18 22 -18 32 0 10 -5
21 -10 24 -8 5 -7 12 2 23 11 13 10 15 -9 10 -12 -3 -24 -1 -25 4 -2 6 -11 4
-20 -6z m-3 -426 c3 -5 1 -10 -4 -10 -6 0 -11 5 -11 10 0 6 2 10 4 10 3 0 8
-4 11 -10z m-275 -237 c-14 -3 -29 -9 -35 -15 -7 -7 -3 -8 12 -3 18 5 22 3 17
-9 -3 -9 -10 -16 -16 -16 -5 0 -6 -4 -3 -10 4 -6 -1 -7 -10 -3 -10 3 -21 0
-25 -7 -10 -15 -48 -21 -56 -8 -3 4 -1 8 4 8 5 0 26 16 46 35 25 24 46 35 64
34 l27 -2 -25 -4z m-76 -91 c2 -4 2 -13 -2 -19 -9 -13 -82 -63 -93 -63 -18 0
-8 29 11 35 12 4 17 11 13 18 -4 7 1 6 10 -2 9 -7 18 -11 18 -7 1 3 2 9 3 14
5 26 29 41 40 24z m-86 -90 c6 6 15 8 19 3 5 -4 4 -9 -2 -11 -5 -2 -26 -13
-45 -23 -19 -11 -55 -30 -80 -43 -25 -13 -47 -26 -50 -30 -3 -4 -19 -12 -35
-17 l-30 -11 35 30 c19 16 41 28 47 25 7 -2 12 -1 11 3 -4 14 26 50 38 45 7
-2 15 5 19 16 3 12 10 19 15 16 5 -3 12 0 16 6 5 9 10 7 19 -4 9 -12 15 -13
23 -5z m-1138 -86 c0 -2 -7 -7 -16 -10 -8 -3 -12 -2 -9 4 6 10 25 14 25 6z
m855 -36 c-3 -5 -26 -22 -51 -36 -45 -27 -56 -46 -12 -23 22 12 23 11 5 -8
-10 -11 -33 -29 -52 -39 -19 -10 -35 -25 -35 -32 0 -7 -4 -10 -10 -7 -5 3 -10
2 -10 -4 0 -11 -157 -91 -178 -91 -7 0 -12 5 -12 10 0 6 4 10 8 10 5 0 17 7
28 16 18 14 18 15 -6 9 -21 -6 -19 -3 10 17 19 13 52 32 72 43 21 10 35 21 33
24 -5 4 -81 -26 -129 -51 -34 -18 -96 -37 -96 -30 0 4 15 13 33 20 17 7 41 18
52 25 67 37 109 55 121 50 8 -3 14 1 14 11 0 9 5 16 10 16 6 0 10 -6 8 -14 -2
-8 2 -14 7 -14 25 3 45 11 45 20 0 5 5 6 10 3 6 -3 10 -1 10 4 0 6 5 11 10 11
6 0 34 16 63 35 56 38 62 40 52 25z m1406 -7 c13 -16 12 -17 -3 -4 -10 7 -18
15 -18 17 0 8 8 3 21 -13z m-2142 -52 c-13 -11 -32 -20 -41 -21 -10 0 -18 -4
-18 -10 0 -14 -120 -72 -137 -66 -8 3 -12 2 -9 -3 5 -8 -23 -22 -50 -25 -6 -1
-19 -7 -28 -15 -13 -11 -19 -11 -31 -1 -24 20 -19 26 39 45 30 10 53 22 50 27
-3 4 0 8 5 8 6 0 11 -5 11 -12 0 -6 6 -3 14 7 7 10 26 20 42 22 16 3 38 12 48
21 11 9 16 12 13 6 -4 -7 0 -14 8 -17 9 -4 12 -1 8 9 -3 8 1 14 9 14 7 0 29 8
48 19 42 23 52 19 19 -8z m1269 -17 c20 -14 33 -52 14 -40 -13 8 -82 -16 -76
-25 3 -5 -3 -6 -12 -2 -10 4 -22 0 -29 -10 -10 -14 -12 -14 -23 3 -10 16 -8
20 9 25 11 4 18 9 15 12 -7 8 47 52 64 53 9 0 26 -7 38 -16z m62 -79 c13 8 23
-33 16 -70 -9 -48 -41 -78 -136 -131 -47 -25 -96 -58 -110 -71 -47 -47 -65
-52 -240 -68 -36 -4 -115 -15 -177 -27 l-112 -20 -30 21 c-43 31 -66 29 -171
-17 -110 -47 -157 -61 -146 -43 18 28 232 111 351 135 6 1 19 5 30 9 30 9 75
16 75 11 0 -2 -15 -13 -32 -25 l-33 -20 35 6 c19 3 49 7 65 10 89 15 138 17
130 6 -5 -10 5 -11 41 -6 92 13 166 37 172 57 2 10 15 21 28 24 13 3 28 12 35
20 6 8 15 11 20 8 5 -3 9 0 9 5 0 6 6 11 13 11 7 0 28 11 47 25 19 14 29 25
23 25 -7 0 -15 -4 -18 -10 -3 -5 -11 -10 -17 -10 -13 0 -2 10 107 96 11 8 14
13 8 9 -18 -9 -53 -15 -53 -9 0 3 14 10 31 16 20 7 27 13 19 18 -8 5 -9 13 -4
21 6 10 9 10 12 1 2 -7 7 -10 12 -7z m-1735 -15 c3 -5 1 -10 -4 -10 -6 0 -11
5 -11 10 0 6 2 10 4 10 3 0 8 -4 11 -10z m1799 -34 c-9 -25 -22 -50 -30 -57
-12 -10 -13 -9 -6 7 45 104 62 126 36 50z m-834 8 c0 -14 -54 -44 -80 -44 -19
0 -10 17 15 28 33 15 38 15 30 0 -3 -7 2 -3 11 10 19 26 24 27 24 6z m-891 -3
c8 -5 9 -11 3 -15 -5 -3 -15 1 -22 9 -14 16 -3 20 19 6z m928 3 c-3 -3 -12 -4
-19 -1 -8 3 -5 6 6 6 11 1 17 -2 13 -5z m-952 -32 c-3 -3 -11 0 -18 7 -9 10
-8 11 6 5 10 -3 15 -9 12 -12z m2175 8 c0 -5 -5 -10 -11 -10 -5 0 -7 5 -4 10
3 6 8 10 11 10 2 0 4 -4 4 -10z m761 -78 c-19 -36 -140 -140 -176 -152 -54
-18 -68 1 -30 40 31 32 48 39 39 15 -4 -8 -2 -15 3 -15 13 0 90 56 133 97 40
38 44 40 31 15z m-531 -359 c0 -5 -15 -16 -33 -26 l-32 -17 30 25 c33 27 35
28 35 18z m35 -73 c-3 -5 -16 -15 -28 -21 -19 -9 -19 -8 3 10 28 23 34 26 25
11z m-199 -54 c-39 -28 -74 -59 -60 -52 13 6 64 -30 64 -45 0 -17 -41 -9 -73
13 -30 21 -31 21 -61 3 -245 -145 -673 -282 -931 -299 l-80 -5 90 19 c50 10
119 24 155 30 94 18 395 119 540 182 69 30 181 84 250 120 120 64 167 79 106
34z m-2901 -54 c-3 -3 -11 0 -18 7 -9 10 -8 11 6 5 10 -3 15 -9 12 -12z m96
-38 c41 -20 107 -51 147 -70 39 -18 72 -38 72 -43 0 -14 -33 -1 -155 60 -90
45 -160 88 -144 89 3 0 39 -16 80 -36z m2614 -84 c-3 -5 -11 -10 -16 -10 -5 0
-47 -18 -92 -39 -192 -91 -528 -185 -732 -206 -33 -3 -75 -8 -93 -11 -19 -2
-31 0 -28 5 3 5 34 12 68 16 35 4 72 9 83 11 11 2 48 9 82 14 163 27 438 109
613 184 113 48 125 51 115 36z"/>
<path d="M2855 1530 c-4 -6 -12 -7 -18 -4 -9 5 -9 4 0 -6 7 -8 16 -9 28 -2 11
6 14 12 7 16 -6 3 -13 2 -17 -4z"/>
<path d="M657 2509 c-4 -16 -3 -18 9 -8 7 6 11 15 8 20 -8 13 -11 11 -17 -12z"/>
<path d="M5230 2490 c0 -5 5 -10 11 -10 5 0 7 5 4 10 -3 6 -8 10 -11 10 -2 0
-4 -4 -4 -10z"/>
<path d="M6475 2479 c-4 -6 -5 -12 -2 -15 2 -3 7 2 10 11 7 17 1 20 -8 4z"/>
<path d="M4336 2463 c-6 -14 -5 -15 5 -6 7 7 10 15 7 18 -3 3 -9 -2 -12 -12z"/>
<path d="M6299 2391 c-1 -3 -1 -9 0 -13 0 -4 -11 -5 -24 -2 -14 2 -25 0 -25
-6 0 -5 -3 -9 -7 -9 -5 1 -19 1 -32 0 -38 -2 -17 -12 31 -16 24 -2 46 -4 51
-4 4 -1 6 -4 6 -8 -7 -45 15 -36 36 14 19 44 19 44 -2 36 -10 -4 -14 -2 -10 4
3 5 0 10 -8 10 -8 0 -16 -3 -16 -6z"/>
<path d="M6074 2329 c-3 -5 7 -9 22 -9 15 0 24 3 20 7 -11 11 -35 12 -42 2z"/>
<path d="M2845 2301 c-5 -10 -77 -30 -124 -36 -49 -6 -48 -12 4 -19 25 -4 43
-12 40 -17 -9 -13 10 -18 88 -22 49 -3 67 -1 67 8 0 7 7 18 15 25 8 7 15 18
15 25 0 22 -93 54 -105 36z"/>
<path d="M6250 2300 c0 -7 -29 -9 -81 -5 -98 6 -96 -4 4 -21 52 -9 62 -12 35
-13 -21 -1 -38 -5 -38 -10 0 -17 19 -22 41 -10 15 8 19 8 15 0 -4 -6 -1 -11 6
-11 7 0 23 -3 36 -6 16 -5 22 -2 22 10 0 9 -8 16 -20 16 -11 0 -20 4 -20 9 0
6 12 9 26 8 16 -1 29 4 32 13 3 8 1 12 -3 8 -4 -4 -14 -1 -22 7 -17 17 -33 19
-33 5z"/>
<path d="M6140 2258 c0 -4 4 -8 9 -8 6 0 12 4 15 8 3 5 -1 9 -9 9 -8 0 -15 -4
-15 -9z"/>
<path d="M1932 2240 c-18 -11 -32 -15 -32 -9 0 5 -4 8 -9 5 -5 -4 -11 -1 -13
5 -3 8 -22 5 -62 -10 -32 -12 -74 -24 -94 -27 -65 -10 -453 -107 -470 -118
-16 -10 -130 -19 -220 -19 -50 1 -94 -3 -97 -8 -7 -10 23 -26 79 -44 32 -10
36 -13 16 -14 -40 -2 -4 -18 60 -26 30 -4 59 -11 64 -15 5 -6 -1 -8 -15 -5
-13 2 -43 6 -67 9 -23 3 -52 11 -64 17 -22 12 -22 12 -5 -14 23 -36 21 -42 -8
-23 -14 9 -25 13 -25 9 1 -18 33 -48 77 -75 84 -49 38 -36 -115 33 l-43 19 12
-21 c10 -19 9 -21 -6 -16 -9 4 -20 7 -23 7 -4 0 -20 12 -37 26 -16 14 -31 20
-33 15 -5 -16 -32 -13 -38 4 -4 8 -10 12 -15 9 -5 -3 -6 -11 -3 -17 10 -17
-128 125 -148 153 -10 13 -18 28 -18 34 0 5 -3 7 -6 4 -6 -6 81 -174 132 -255
45 -70 104 -134 117 -126 18 11 121 29 157 28 19 -1 70 -8 112 -15 70 -12 83
-12 133 4 51 16 66 36 27 36 -9 0 -35 7 -57 15 l-40 14 36 1 c33 0 59 14 59
32 0 4 -5 8 -11 8 -5 0 -7 -4 -4 -10 3 -5 -1 -10 -9 -10 -9 0 -16 4 -16 8 0 4
-14 9 -31 10 -18 1 -39 7 -48 12 -12 7 -7 8 16 5 18 -2 37 -6 42 -9 5 -4 12
-2 16 4 5 9 32 7 98 -6 106 -20 362 -23 458 -5 64 12 88 24 184 89 38 24 60
32 95 32 25 0 59 4 76 9 24 7 50 3 117 -19 87 -29 124 -32 119 -10 -2 8 4 11
18 7 28 -7 25 11 -5 25 -14 6 -25 18 -25 26 0 11 8 13 37 7 21 -4 42 -10 48
-13 5 -3 32 -7 60 -8 27 -1 59 -3 70 -4 11 0 27 8 35 18 23 27 58 44 79 37 19
-6 142 53 142 69 0 13 -132 57 -166 55 -52 -3 -63 0 -70 21 -5 16 -10 18 -31
10 -32 -12 -37 -12 -29 0 4 6 -6 7 -27 2 -32 -7 -66 -7 -176 2 -29 2 -55 0
-58 -5 -9 -16 -32 2 -27 22 7 27 -12 24 -64 -11 -48 -33 -74 -40 -53 -15 23
28 -2 38 -48 19 -23 -9 -49 -13 -57 -10 -9 3 -13 2 -10 -4 3 -5 -4 -14 -16
-20 -15 -8 -19 -9 -15 -1 4 6 2 11 -5 11 -8 0 -6 7 5 19 25 27 5 33 -32 11z
m-252 -170 c0 -5 -8 -10 -17 -10 -15 0 -16 2 -3 10 19 12 20 12 20 0z m85 -10
c24 0 50 -6 57 -13 9 -9 34 -12 78 -10 64 2 64 2 32 -12 -36 -16 -125 -36
-159 -37 -13 0 -23 -4 -23 -8 0 -4 -20 -14 -44 -22 -40 -13 -47 -13 -60 1 -9
9 -16 11 -16 4 0 -6 6 -14 13 -17 6 -3 -7 -4 -31 -4 -50 2 -51 18 -1 31 23 6
40 5 52 -3 11 -6 16 -7 13 -2 -3 5 26 18 65 28 39 11 70 24 70 29 -1 6 -5 11
-11 11 -5 1 -11 2 -12 3 -2 2 -21 5 -43 7 -22 3 -44 10 -50 16 -7 8 -5 9 8 4
10 -3 38 -6 62 -6z m158 -7 c-13 -2 -35 -2 -50 0 -16 2 -5 4 22 4 28 0 40 -2
28 -4z m100 -10 c-7 -2 -19 -2 -25 0 -7 3 -2 5 12 5 14 0 19 -2 13 -5z m-808
-63 c-3 -5 -12 -10 -18 -10 -7 0 -6 4 3 10 19 12 23 12 15 0z m15 -26 c0 -2
-13 -4 -30 -4 -16 0 -30 4 -30 8 0 5 14 7 30 4 17 -2 30 -6 30 -8z m-176 -20
c9 -3 14 -10 11 -15 -7 -10 -35 0 -35 12 0 11 3 11 24 3z m706 -1 c-8 -3 -18
-11 -22 -18 -8 -13 -155 -18 -163 -6 -2 4 1 8 8 8 33 3 112 15 116 19 2 2 20
4 40 3 20 0 29 -3 21 -6z"/>
<path d="M1490 2220 c-36 -3 -86 -5 -112 -5 -58 1 -48 -14 15 -21 48 -6 172
10 197 26 11 7 9 9 -10 7 -14 -1 -55 -4 -90 -7z"/>
<path d="M3078 2015 c-2 -3 -18 -6 -34 -8 -16 -2 -55 -16 -86 -31 -57 -27 -75
-41 -40 -30 9 3 6 -2 -8 -10 -14 -8 -37 -15 -52 -16 -16 0 -28 -4 -28 -10 0
-5 -3 -9 -7 -9 -20 3 -34 -2 -28 -11 9 -14 -8 -12 -24 3 -11 10 -12 7 -6 -13
4 -14 4 -22 0 -18 -5 4 -14 3 -20 -2 -12 -10 -132 -34 -225 -45 -25 -3 -60 -8
-79 -11 -51 -7 -72 3 -67 32 3 13 3 24 1 24 -10 0 -61 -26 -66 -33 -4 -5 -10
4 -13 19 -6 21 -10 24 -16 14 -11 -18 -118 -19 -129 -1 -7 10 -13 11 -31 1
-12 -6 -30 -10 -40 -7 -9 2 -25 0 -35 -6 -32 -17 -206 -76 -200 -68 15 25 -40
17 -149 -20 -182 -62 -238 -77 -261 -68 -11 4 -14 8 -7 8 6 1 12 7 12 14 0 8
-21 12 -73 12 -59 0 -87 -7 -150 -33 -83 -35 -106 -36 -66 -3 l24 20 -35 -4
c-19 -3 -52 0 -73 6 -52 14 -139 13 -182 -1 -37 -12 -37 -22 2 -65 10 -11 45
-54 78 -95 107 -135 277 -310 440 -455 44 -38 88 -78 99 -88 11 -9 40 -27 65
-39 25 -12 57 -29 71 -38 148 -102 126 -54 -37 83 -136 113 -465 434 -471 459
-2 7 -13 21 -25 30 -12 10 -18 18 -13 18 5 0 3 6 -3 14 -8 10 -9 16 -1 21 6 4
9 1 8 -6 -2 -7 2 -13 9 -14 6 0 25 -17 42 -39 17 -21 31 -33 31 -27 0 7 5 9
10 6 6 -4 8 -11 5 -16 -4 -5 0 -9 9 -9 8 0 16 -5 18 -12 2 -6 10 -8 17 -4 7 5
10 14 7 22 -3 8 -1 14 4 14 6 0 10 -11 10 -25 0 -14 5 -25 11 -25 5 0 8 4 5 9
-4 5 0 12 6 14 10 4 10 6 1 6 -13 1 -19 31 -6 31 4 0 17 -10 30 -22 13 -12 23
-16 23 -10 0 7 -5 12 -12 12 -6 0 -9 3 -6 6 4 3 15 1 26 -5 12 -6 22 -7 28 -1
6 6 22 6 43 0 52 -15 251 -22 310 -10 30 5 59 17 65 25 9 12 17 13 48 4 20 -7
44 -8 55 -4 23 10 72 15 209 18 103 2 113 4 146 29 20 15 56 34 81 43 25 8 69
31 97 50 45 30 79 42 94 33 2 -2 12 4 22 13 11 9 43 20 71 24 29 4 56 11 59
16 3 5 38 26 77 46 103 51 203 119 260 174 28 27 60 55 73 64 13 8 24 20 24
25 0 11 -13 13 -22 5z m-2018 -497 c6 1 9 -2 6 -7 -4 -5 8 -24 25 -43 36 -40
72 -88 65 -88 -9 0 -99 92 -158 162 -81 96 -91 125 -14 43 36 -38 70 -69 76
-67z m1067 -4 c-3 -3 -12 -4 -19 -1 -8 3 -5 6 6 6 11 1 17 -2 13 -5z"/>
<path d="M4500 1960 c-9 -16 -8 -18 5 -14 8 4 15 12 15 20 0 20 -7 17 -20 -6z"/>
<path d="M586 1905 c13 -34 114 -206 167 -285 56 -83 167 -230 173 -230 5 0
-44 76 -133 207 -35 50 -92 140 -129 200 -68 112 -91 144 -78 108z"/>
<path d="M3065 1870 c-10 -11 -22 -17 -26 -14 -5 3 -9 -2 -9 -11 0 -14 2 -14
24 0 13 9 27 23 30 31 7 19 2 18 -19 -6z"/>
<path d="M531 1854 c8 -22 93 -164 96 -160 2 2 -17 39 -43 82 -45 77 -61 100
-53 78z"/>
<path d="M6236 1821 c-4 -7 -5 -15 -2 -18 9 -9 19 4 14 18 -4 11 -6 11 -12 0z"/>
<path d="M6216 1773 c-6 -14 -5 -15 5 -6 7 7 10 15 7 18 -3 3 -9 -2 -12 -12z"/>
<path d="M5406 1758 c3 -5 10 -6 15 -3 13 9 11 12 -6 12 -8 0 -12 -4 -9 -9z"/>
<path d="M5452 1751 c-14 -8 4 -29 44 -49 16 -9 21 -8 21 3 0 8 -3 12 -6 10
-8 -5 -37 17 -42 32 -2 7 -9 9 -17 4z"/>
<path d="M5570 1666 c0 -2 9 -6 20 -9 11 -3 18 -1 14 4 -5 9 -34 13 -34 5z"/>
<path d="M6120 1620 c-26 -26 -73 -101 -67 -107 6 -5 97 105 97 118 0 14 -8
11 -30 -11z"/>
<path d="M4955 1590 c3 -5 8 -10 11 -10 2 0 4 5 4 10 0 6 -5 10 -11 10 -5 0
-7 -4 -4 -10z"/>
<path d="M6123 1483 c-29 -40 -154 -193 -185 -228 -10 -11 -27 -31 -39 -45
-11 -14 -41 -47 -67 -75 -25 -27 -62 -68 -81 -89 -20 -22 -27 -33 -15 -25 53
36 223 229 343 389 35 47 68 91 74 98 5 6 7 12 4 12 -3 0 -19 -17 -34 -37z"/>
<path d="M6175 1423 c-38 -53 -74 -101 -80 -108 -43 -48 -53 -64 -20 -30 95
99 200 236 179 235 -5 -1 -40 -44 -79 -97z"/>
<path d="M969 1493 c23 -44 182 -223 197 -223 4 0 -1 10 -12 23 -11 12 -37 42
-59 67 -83 97 -138 154 -126 133z"/>
<path d="M1248 1150 c43 -48 92 -87 92 -74 0 8 -122 124 -131 124 -3 0 14 -22
39 -50z"/>
<path d="M5522 875 c-62 -52 -110 -95 -106 -95 9 0 108 80 188 152 75 69 32
38 -82 -57z"/>
<path d="M1535 879 c101 -83 145 -114 145 -100 0 5 -35 34 -77 65 -43 31 -91
66 -107 79 -71 55 -42 23 39 -44z"/>
<path d="M1785 803 c45 -43 175 -117 175 -98 0 2 -37 24 -82 50 -103 59 -106
60 -93 48z"/>
<path d="M1965 727 c58 -40 122 -70 200 -97 49 -17 90 -29 91 -27 6 6 -204
116 -241 126 -56 15 -74 14 -50 -2z"/>
</g>
</svg>
